/* XPM */
static char * stock_commandline_browser_xpm[] = {
"24 24 53 1",
" 	c None",
".	c #000000",
"+	c #616161",
"@	c #C8893B",
"#	c #C1893B",
"$	c #BB823B",
"%	c #303030",
"&	c #CE9F4E",
"*	c #C8974E",
"=	c #C19045",
"-	c #C8904E",
";	c #C8894E",
">	c #C1903B",
",	c #CE9745",
"'	c #AD7145",
")	c #9F6123",
"!	c #AD6923",
"~	c #AD712F",
"{	c #AD7116",
"]	c #B4712F",
"^	c #B48245",
"/	c #C1823B",
"(	c #BB8245",
"_	c #A66916",
":	c #9F612F",
"<	c #A6692F",
"[	c #AD7123",
"}	c #C1822F",
"|	c #BB7945",
"1	c #BB894E",
"2	c #BB8945",
"3	c #C89045",
"4	c #C1824E",
"5	c #C1894E",
"6	c #BB893B",
"7	c #B47123",
"8	c #C18945",
"9	c #C8892F",
"0	c #B4793B",
"a	c #B4792F",
"b	c #B47923",
"c	c #B4822F",
"d	c #BB822F",
"e	c #C1793B",
"f	c #C18245",
"g	c #BB792F",
"h	c #BB793B",
"i	c #C1904E",
"j	c #C8903B",
"k	c #AD692F",
"l	c #B47945",
"m	c #BB824E",
"n	c #C88945",
"                        ",
"                        ",
"                        ",
"                        ",
"         .....          ",
"       .........        ",
"      ...+@#$+...       ",
"     ..%&*=-;>,%..      ",
"     ..')!~{]^/(..      ",
"    ..+{_:<![}$|+..     ",
"    ..1/23-456;17..     ",
"    ..38-950ab[a!..     ",
"    ..cd0$$efgh(g..     ",
"    ..+93ij>8#58+..     ",
"     ..h8(/}($d(..      ",
"     ..%{kll$b}%..      ",
"      ...+mn3+...       ",
"       .........        ",
"         .....          ",
"                        ",
"                        ",
"                        ",
"                        ",
"                        "};
