/* XPM */
static char * stock_commandline_history_xpm[] = {
"24 24 73 1",
" 	c None",
".	c #000000",
"+	c #5F5F5F",
"@	c #6F6F6F",
"#	c #6E6E6E",
"$	c #636363",
"%	c #917C65",
"&	c #C1822F",
"*	c #C18245",
"=	c #C1823B",
"-	c #C1893B",
";	c #BB793B",
">	c #B4792F",
",	c #BB823B",
"'	c #C8893B",
")	c #B4822F",
"!	c #BB792F",
"~	c #606060",
"{	c #3E3E3E",
"]	c #BB894E",
"^	c #C8894E",
"/	c #CE9F4E",
"(	c #C8974E",
"_	c #C19045",
":	c #C8904E",
"<	c #C1903B",
"[	c #CE9745",
"}	c #CE9757",
"|	c #CE904E",
"1	c #C17945",
"2	c #676767",
"3	c #1D1D1D",
"4	c #444444",
"5	c #A67123",
"6	c #AD712F",
"7	c #AD7145",
"8	c #AD793B",
"9	c #9F6123",
"0	c #AD6923",
"a	c #AD7116",
"b	c #B4712F",
"c	c #B48245",
"d	c #BB8245",
"e	c #BB893B",
"f	c #AD713B",
"g	c #B47945",
"h	c #A66916",
"i	c #9F612F",
"j	c #A6692F",
"k	c #AD7123",
"l	c #BB7945",
"m	c #C89045",
"n	c #CE9045",
"o	c #BB8945",
"p	c #C1824E",
"q	c #C1894E",
"r	c #B47123",
"s	c #B4793B",
"t	c #C18945",
"u	c #C8892F",
"v	c #B47923",
"w	c #7E7469",
"x	c #BB822F",
"y	c #C1793B",
"z	c #84786A",
"A	c #C1904E",
"B	c #C8903B",
"C	c #857B6E",
"D	c #84796A",
"E	c #837868",
"F	c #BE8B53",
"G	c #5C5C5C",
"H	c #242424",
"                        ",
"                        ",
"                        ",
"                        ",
"........................",
".+@@@@@@@@@@@@@@@@@@@#$.",
".%&*=-;>>,'-,)!>)!!&>=~.",
".{']=--^/(_:^<[}|-:_123 ",
" .456787906abc=de,=;23  ",
"  .4fg6ahij0k&,lmn_23   ",
"   .4,]=om:pqe^]rs~3    ",
"    .4mt:uqs>vk>0w.     ",
"     .4xs,,y*!;dz..     ",
"      .4mAB<t-qC..      ",
"       .4d=&d,D..       ",
"        .4gg,E..        ",
"         .4FG..         ",
"          .H..          ",
"            .           ",
"                        ",
"                        ",
"                        ",
"                        ",
"                        "};
