/* XPM */
static char * bottom_left_inactive_xpm[] = {
"19 19 187 2",
"  	c None",
". 	c #84553E",
"+ 	c #78443E",
"@ 	c #804E3E",
"# 	c #8A5742",
"$ 	c #C5907C",
"% 	c #DBB79C",
"& 	c #CEA27F",
"* 	c #763808",
"= 	c #BC8663",
"- 	c #DEA380",
"; 	c #A36E5B",
"> 	c #9D6E55",
", 	c #CC9B77",
"' 	c #A86836",
") 	c #B0765B",
"! 	c #E1A57D",
"~ 	c #CE8F7C",
"{ 	c #C08766",
"] 	c #D9AA86",
"^ 	c #A97451",
"/ 	c #CFA482",
"( 	c #CDA27F",
"_ 	c #A36952",
": 	c #BC8262",
"< 	c #BC806B",
"[ 	c #B9805E",
"} 	c #B47D5B",
"| 	c #D9B598",
"1 	c #F1E2D6",
"2 	c #B58067",
"3 	c #B07664",
"4 	c #8A533E",
"5 	c #955B40",
"6 	c #E1A684",
"7 	c #B57D5E",
"8 	c #D29B7A",
"9 	c #DAB79B",
"0 	c #C59072",
"a 	c #BB8764",
"b 	c #7D4E3E",
"c 	c #82523E",
"d 	c #CE9971",
"e 	c #BF8C6D",
"f 	c #D9B497",
"g 	c #BF845B",
"h 	c #D6997C",
"i 	c #D8A178",
"j 	c #C08869",
"k 	c #C68C6B",
"l 	c #BB8669",
"m 	c #C08C68",
"n 	c #C79670",
"o 	c #C58664",
"p 	c #CA8B66",
"q 	c #CA8C70",
"r 	c #BC805D",
"s 	c #C68A6D",
"t 	c #D5A677",
"u 	c #C89973",
"v 	c #C89872",
"w 	c #CB9E7B",
"x 	c #C99A75",
"y 	c #B87D6C",
"z 	c #C8926B",
"A 	c #AF765D",
"B 	c #B88172",
"C 	c #B17C62",
"D 	c #D29D71",
"E 	c #CC9F7C",
"F 	c #DCBA9F",
"G 	c #C49074",
"H 	c #D29B6B",
"I 	c #B27C5F",
"J 	c #B18052",
"K 	c #DEBDA3",
"L 	c #D6AF91",
"M 	c #B6805D",
"N 	c #CB906E",
"O 	c #AF7455",
"P 	c #DBAD7D",
"Q 	c #B28047",
"R 	c #F5BF92",
"S 	c #D1A786",
"T 	c #D1A685",
"U 	c #C08676",
"V 	c #D09772",
"W 	c #E1A97C",
"X 	c #C89568",
"Y 	c #C58B63",
"Z 	c #A97448",
"` 	c #C8905B",
" .	c #C88D6B",
"..	c #D0A082",
"+.	c #B17A55",
"@.	c #BA826D",
"#.	c #D89F6E",
"$.	c #E1AF84",
"%.	c #CA8B6D",
"&.	c #CF996D",
"*.	c #D49D74",
"=.	c #B27D52",
"-.	c #9F684B",
";.	c #82493E",
">.	c #7A403E",
",.	c #763E3E",
"'.	c #683E3E",
").	c #6E3E3E",
"!.	c #7A3F3E",
"~.	c #B67767",
"{.	c #C48D63",
"].	c #C2876E",
"^.	c #BC885B",
"/.	c #CE9772",
"(.	c #BE876D",
"_.	c #D69F7A",
":.	c #EEBA92",
"<.	c #BC8161",
"[.	c #B87E63",
"}.	c #B47155",
"|.	c #C4826B",
"1.	c #B47464",
"2.	c #8D5143",
"3.	c #B2725E",
"4.	c #B97C5B",
"5.	c #C28863",
"6.	c #CE997A",
"7.	c #C48768",
"8.	c #C29268",
"9.	c #B27E67",
"0.	c #AB725E",
"a.	c #B6765D",
"b.	c #BC7C64",
"c.	c #B5745E",
"d.	c #BA776B",
"e.	c #BA7667",
"f.	c #91533E",
"g.	c #BA8758",
"h.	c #CA9276",
"i.	c #AD8155",
"j.	c #C0907A",
"k.	c #BF8672",
"l.	c #B47A59",
"m.	c #B67C62",
"n.	c #BA7D64",
"o.	c #B4775E",
"p.	c #8B4D3E",
"q.	c #A7665B",
"r.	c #B17061",
"s.	c #A96851",
"t.	c #C0845D",
"u.	c #C48A5B",
"v.	c #C4997C",
"w.	c #B58D70",
"x.	c #D2AC8E",
"y.	c #DEAC90",
"z.	c #E3AB8F",
"A.	c #B97E5D",
"B.	c #C48868",
"C.	c #C08261",
"D.	c #7C423E",
"E.	c #743E3E",
"F.	c #A96C58",
"G.	c #A5685F",
"H.	c #B0785D",
"I.	c #BA8059",
"J.	c #C29D7D",
"K.	c #B8926D",
"L.	c #B98C6B",
"M.	c #B6775B",
"N.	c #AF7053",
"O.	c #AB6C55",
"P.	c #9D614D",
"Q.	c #9F6258",
"R.	c #9D674E",
"S.	c #CAAD86",
"T.	c #AD8861",
"U.	c #A67A55",
"V.	c #B28763",
"W.	c #A07152",
"X.	c #8B553E",
"Y.	c #965740",
"Z.	c #91573F",
"`.	c #86483E",
" +	c #8D513E",
".+	c #874E3F",
"++	c #8F5B47",
". + @ # $ % % & * * * * * * * * * * * ",
"= - ; ; > , % & & ' ' ' ' ' ' ' ' ' ' ",
") ! ~ { ] ^ % % & / & ( ( ( ( ( & & & ",
"_ : < [ , } % % | 1 1 1 1 1 1 1 1 1 1 ",
"2 3 4 5 6 7 8 % % % % % | % % % 9 % % ",
"0 a b c d ; e | f f f f | f f f f f f ",
"g h i j k l m / / / / / / / / n / / / ",
"o p q r s a t u v v u u n u u u w x x ",
"7 y z A B C D E u u x x x & / F 9 9 9 ",
"G H < I l G J K | | f f | L % 9 L L L ",
"M N k O e P Q R S T T F F 9 9 9 9 9 | ",
"_ U V W X H Y Z `  ./ ..F 9 9 9 9 9 9 ",
"+.@.#.$.%.&. .*.=.-.;.>.>.,.'.).!.~.T ",
"{.].^./.(._.j :.<.[.) }.o |.; ; 1.2.3.",
"4.5.6./...7.z 8.9.0.<.a.a.b.c.3.d.e.f.",
"%.g.U u h.a X i.j.k.l.m.n.o.,.p.q.r.s.",
"  7 t.u.v.w.x.y.z.o.: A.B.C.D.E.F.G.H.",
"    I.=.J.K.L.u k ) 4.o M.N.O.P.P.Q.R.",
"        S.T.U.V.W.X.# Y.p.Z.`.`. +.+++"};
