/* XPM */
static char * bottom_right_inactive_xpm[] = {
"19 19 174 2",
"  	c None",
". 	c #763808",
"+ 	c #CDA27F",
"@ 	c #DBB79C",
"# 	c #C5907C",
"$ 	c #8A5742",
"% 	c #78443E",
"& 	c #82523E",
"* 	c #A86836",
"= 	c #CF9974",
"- 	c #9D6E55",
"; 	c #A36E5B",
"> 	c #DEA380",
", 	c #BA8464",
"' 	c #A97451",
") 	c #D9AA86",
"! 	c #C08766",
"~ 	c #CE8F7C",
"{ 	c #E1A57D",
"] 	c #B0765B",
"^ 	c #F1E2D6",
"/ 	c #B47D5B",
"( 	c #CC9B77",
"_ 	c #B97E5D",
": 	c #BC806B",
"< 	c #BC8161",
"[ 	c #A16952",
"} 	c #DAB79B",
"| 	c #DAB79A",
"1 	c #D29B7A",
"2 	c #E1A684",
"3 	c #955B40",
"4 	c #8B553E",
"5 	c #B07664",
"6 	c #B58067",
"7 	c #D9B497",
"8 	c #BF8C6D",
"9 	c #C89872",
"0 	c #7D4E3E",
"a 	c #BB8764",
"b 	c #C69072",
"c 	c #CFA482",
"d 	c #C79670",
"e 	c #D0A082",
"f 	c #D1A685",
"g 	c #C29168",
"h 	c #BB8669",
"i 	c #C68C6B",
"j 	c #D8A178",
"k 	c #D6997C",
"l 	c #BF845B",
"m 	c #CA9C77",
"n 	c #C89973",
"o 	c #D5A677",
"p 	c #CA8B6D",
"q 	c #C88C68",
"r 	c #C58664",
"s 	c #DDBBA1",
"t 	c #C99A75",
"u 	c #D29D71",
"v 	c #B17C62",
"w 	c #B88172",
"x 	c #B0785D",
"y 	c #CB906E",
"z 	c #B87D6C",
"A 	c #D6AF91",
"B 	c #DCBA9F",
"C 	c #D2AC8E",
"D 	c #DEBDA3",
"E 	c #B18052",
"F 	c #C49074",
"G 	c #B8846B",
"H 	c #BC8169",
"I 	c #CF9970",
"J 	c #D1A786",
"K 	c #F5BF92",
"L 	c #B28047",
"M 	c #DBAD7D",
"N 	c #C08C68",
"O 	c #AF7455",
"P 	c #C58C66",
"Q 	c #B6805D",
"R 	c #C8905B",
"S 	c #A97448",
"T 	c #C48D63",
"U 	c #D29B6B",
"V 	c #CC966D",
"W 	c #E1A97C",
"X 	c #BF8672",
"Y 	c #B67767",
"Z 	c #7A3F3E",
"` 	c #6E3E3E",
" .	c #683E3E",
"..	c #743E3E",
"+.	c #7C423E",
"@.	c #82493E",
"#.	c #9F684B",
"$.	c #B07C52",
"%.	c #D49D74",
"&.	c #C88D6B",
"*.	c #E1AF84",
"=.	c #D89F6E",
"-.	c #BA826D",
";.	c #B17A55",
">.	c #B0705D",
",.	c #8D5143",
"'.	c #B47464",
").	c #C4826B",
"!.	c #C48768",
"~.	c #B47155",
"{.	c #B27659",
"].	c #B87E63",
"^.	c #B67C62",
"/.	c #C28A68",
"(.	c #D69F7A",
"_.	c #BE876D",
":.	c #CE9772",
"<.	c #BA8758",
"[.	c #C2876E",
"}.	c #91533E",
"|.	c #BA7667",
"1.	c #BA776B",
"2.	c #B2725E",
"3.	c #B5745E",
"4.	c #BC7C64",
"5.	c #B6765D",
"6.	c #B47A59",
"7.	c #AB725E",
"8.	c #B27E67",
"9.	c #C8926B",
"0.	c #CE997A",
"a.	c #BA8059",
"b.	c #A96851",
"c.	c #A7665B",
"d.	c #8B4D3E",
"e.	c #BA7D64",
"f.	c #C08676",
"g.	c #C0907A",
"h.	c #AD8155",
"i.	c #C89568",
"j.	c #CA9276",
"k.	c #BF8276",
"l.	c #CC8D71",
"m.	c #A5685F",
"n.	c #A96C58",
"o.	c #7C433E",
"p.	c #BE805F",
"q.	c #C58866",
"r.	c #C08261",
"s.	c #E3AB8F",
"t.	c #DEAC90",
"u.	c #B58D70",
"v.	c #C4997C",
"w.	c #C48A5B",
"x.	c #C0845D",
"y.	c #9D674E",
"z.	c #9F6258",
"A.	c #9D624D",
"B.	c #AB6C55",
"C.	c #AF7053",
"D.	c #C28D6C",
"E.	c #B98C6B",
"F.	c #B8926D",
"G.	c #C29D7D",
"H.	c #8F5B47",
"I.	c #82453E",
"J.	c #86483E",
"K.	c #965740",
"L.	c #91573F",
"M.	c #A07152",
"N.	c #B28763",
"O.	c #A67A55",
"P.	c #AD8861",
"Q.	c #CAAD86",
". . . . . . . . . . . + @ @ # $ $ % & ",
"* * * * * * * * * * + + @ = - ; ; > , ",
"+ + + + + + + + + + + @ @ ' ) ! ~ { ] ",
"^ ^ ^ ^ ^ ^ ^ ^ ^ ^ @ @ @ / ( _ : < [ ",
"@ @ @ @ @ @ } @ @ } | | 1 / 2 3 4 5 6 ",
"7 7 7 7 7 7 7 7 7 7 } 7 8 ; 9 $ 0 a b ",
"c c c d c c c c e c e f g h i h j k l ",
"m m m n n n n 9 n n 9 n o , p _ p q r ",
"} } } s e + t t n t m ( u v w x y z / ",
"A A A B @ C } 7 7 7 7 D E F G v H I b ",
"} } | | | | s B J f f K L M N O P y Q ",
"} } | | | | s e + q R S T U V W = X [ ",
"f Y Z `  ...Z +.@.#.$.%.&.U p *.=.-.;.",
">.,.'.; ; ).!.~.{.].^.K /.(._.:.<.[.T ",
"}.|.1.2.3.4.5.6.< 7.8.g 9.!.e :.0./.a.",
"b.2.c.d...5.e.^.6.f.g.h.i., j.n k.<.l.",
"] m.n.` o.p.q._ r.2.s.t.C u.v.w.x./   ",
"y.z.A.A.B.C.6.! _ 6.D.m E.F.G.$.a.    ",
"H.,.d.I.J.K.d.L.}.4 M.N.O.P.Q.        "};
