/* XPM */
static char * bottom_right_active_xpm[] = {
"19 19 199 2",
"  	c None",
". 	c #6A4119",
"+ 	c #FBF66A",
"@ 	c #B36C52",
"# 	c #974A27",
"$ 	c #954A29",
"% 	c #5C1E00",
"& 	c #A57E5A",
"* 	c #BE7947",
"= 	c #7E401E",
"- 	c #864026",
"; 	c #8D3D23",
"> 	c #D38657",
", 	c #A56133",
"' 	c #E6B75F",
") 	c #F6D272",
"! 	c #FFC55C",
"~ 	c #8D4719",
"{ 	c #CD8F5F",
"] 	c #AC6135",
"^ 	c #BE6B52",
"/ 	c #D78854",
"( 	c #984D26",
"_ 	c #FFFD6F",
": 	c #9C5427",
"< 	c #BC7B4B",
"[ 	c #A2572B",
"} 	c #A7573B",
"| 	c #A75A30",
"1 	c #85391A",
"2 	c #FFC962",
"3 	c #C37B50",
"4 	c #9D542B",
"5 	c #D78A5C",
"6 	c #732703",
"7 	c #641C00",
"8 	c #974A33",
"9 	c #9D5736",
"0 	c #AA673E",
"a 	c #BE7843",
"b 	c #5A1A00",
"c 	c #541500",
"d 	c #B46C45",
"e 	c #FFCC66",
"f 	c #EDB75B",
"g 	c #EEB85B",
"h 	c #AF6E38",
"i 	c #A55F39",
"j 	c #B4673B",
"k 	c #AC6239",
"l 	c #C9804F",
"m 	c #C97952",
"n 	c #AA5C26",
"o 	c #E9AB4E",
"p 	c #E6AD72",
"q 	c #E6AD55",
"r 	c #C88A4B",
"s 	c #A25C35",
"t 	c #B4643E",
"u 	c #A75729",
"v 	c #B96742",
"w 	c #B96635",
"x 	c #B35F33",
"y 	c #EDA84C",
"z 	c #EDB051",
"A 	c #EDB060",
"B 	c #EDAD4C",
"C 	c #C37D43",
"D 	c #985230",
"E 	c #A15945",
"F 	c #BB6F3E",
"G 	c #A1543D",
"H 	c #9C5229",
"I 	c #FFB34D",
"J 	c #FFBD59",
"K 	c #FFCC80",
"L 	c #98571A",
"M 	c #B16C47",
"N 	c #A15C3B",
"O 	c #9A522C",
"P 	c #C07842",
"Q 	c #FFCC42",
"R 	c #FFC35E",
"S 	c #FFB754",
"T 	c #F2AA6F",
"U 	c #9A570C",
"V 	c #D09354",
"W 	c #AC6738",
"X 	c #95481E",
"Y 	c #B36735",
"Z 	c #FFA439",
"` 	c #FFCC3E",
" .	c #FFC638",
"..	c #FFC661",
"+.	c #B6693B",
"@.	c #B76C27",
"#.	c #8D470D",
"$.	c #B36631",
"%.	c #C37B3B",
"&.	c #BC743E",
"*.	c #D78D52",
"=.	c #AE6140",
"-.	c #F7B554",
";.	c #9F4B36",
">.	c #4F0200",
",.	c #400000",
"'.	c #380000",
").	c #4A0000",
"!.	c #500300",
"~.	c #5A0F00",
"{.	c #803811",
"].	c #97521A",
"^.	c #CB8040",
"/.	c #C0783E",
"(.	c #B9663E",
"_.	c #D7955D",
":.	c #A45A3E",
"<.	c #98501F",
"[.	c #974229",
"}.	c #691907",
"|.	c #B15A3B",
"1.	c #B45C39",
"2.	c #9A4A24",
"3.	c #9C552B",
"4.	c #E9A46F",
"5.	c #AF6438",
"6.	c #A9613E",
"7.	c #BE7645",
"8.	c #A76227",
"9.	c #B16931",
"0.	c #6E1C00",
"a.	c #A44A36",
"b.	c #A44B3B",
"c.	c #98422E",
"d.	c #9D472B",
"e.	c #A75233",
"f.	c #9C4B2B",
"g.	c #9F4A29",
"h.	c #A7592E",
"i.	c #90452B",
"j.	c #9A5536",
"k.	c #AF6F38",
"l.	c #B67338",
"m.	c #B16238",
"n.	c #C1815A",
"o.	c #C17645",
"p.	c #BE7850",
"q.	c #AF6231",
"r.	c #A25727",
"s.	c #8D3819",
"t.	c #8B3527",
"u.	c #661400",
"v.	c #A45433",
"w.	c #9F5230",
"x.	c #9C4F24",
"y.	c #AC6C4F",
"z.	c #A45C33",
"A.	c #B96F4A",
"B.	c #BB7945",
"C.	c #AA5A4A",
"D.	c #A46123",
"E.	c #BC6943",
"F.	c #974D29",
"G.	c #88382C",
"H.	c #520700",
"I.	c #B36235",
"J.	c #DA906B",
"K.	c #D3926C",
"L.	c #C68B6C",
"M.	c #9D6942",
"N.	c #B17952",
"O.	c #B16426",
"P.	c #AC5D29",
"Q.	c #7E3615",
"R.	c #803023",
"S.	c #7E3014",
"T.	c #7E2E14",
"U.	c #903D1F",
"V.	c #95421C",
"W.	c #9D4D24",
"X.	c #AE693D",
"Y.	c #B77D4A",
"Z.	c #A2673B",
"`.	c #A16F3E",
" +	c #AE7E54",
".+	c #A45724",
"++	c #6B270C",
"@+	c #611502",
"#+	c #691900",
"$+	c #5A0A00",
"%+	c #5F0D00",
"&+	c #742103",
"*+	c #691700",
"=+	c #6E2102",
"-+	c #81431A",
";+	c #9A6131",
">+	c #8A4F1F",
",+	c #93622E",
"'+	c #B9935F",
". . . . . . . . . . + + + + @ # $ $ % ",
"& & & & & & & & & + + + + * = - ; > , ",
"' ' ) ' ' ' ' ' ' + + + ! ~ { ] ^ / ( ",
"+ + _ + + + + + + + + ! ! : < [ } | 1 ",
"2 2 2 2 2 2 2 2 2 2 2 2 3 4 5 6 7 8 9 ",
"! ! ! ! ! ! ! ! ! ! ! ! 0 - a b c , d ",
"e e e e e f f g g g g g h i j k l m n ",
"o o o o o p q q q q q q r s t u v w x ",
"y y f z z z z A B B B B C D E $ F G H ",
"I I J J J J e K ! ! ! ! L M N O } P d ",
"Q e R R R R S S S S S T U V W X Y F 4 ",
"Z e ` ` `  . .....+.@.#.$.%.&.*.< =.1 ",
"-.;.>.,.'.).!.!.~.{.].^.+./.(._.^.:.<.",
"[.}.8 ; - |.1.2.( 9 3.4.5.l 6.7.8.=.9.",
"0.a.b.c.d.e.f.g.h.i.j.k.l.m.n.o.p.q.r.",
"s.c.t.u.).f.v.w.x.=.y.: l.z.A.B.C.D.E.",
"F.G.; ,.H.h.I.u h.g.J.K.L.M.N.O.P.3.  ",
"Q.R.S.T.U.V.W.m.: $ X.Y.Z.`. +]..+    ",
"++@+#+$+%+&+*+0.0.=+-+;+>+,+'+        "};
