/* XPM */
static char * bottom_active_xpm[] = {
"128 19 150 2",
"  	c None",
". 	c #6A4119",
"+ 	c #6C4014",
"@ 	c #A57E5A",
"# 	c #B0855B",
"$ 	c #AC794E",
"% 	c #B6804E",
"& 	c #E6B75F",
"* 	c #F6D272",
"= 	c #E6AE61",
"- 	c #FFD973",
"; 	c #FBF66A",
"> 	c #FFFD6F",
", 	c #FFC962",
"' 	c #FAC663",
") 	c #FCC864",
"! 	c #FFC65D",
"~ 	c #FFCC60",
"{ 	c #F9C562",
"] 	c #FFC661",
"^ 	c #FFCC66",
"/ 	c #FFC55C",
"( 	c #FFC45A",
"_ 	c #F8C15E",
": 	c #FFCC55",
"< 	c #EEB85B",
"[ 	c #EDB75B",
"} 	c #EEAE53",
"| 	c #ECB65A",
"1 	c #EDB355",
"2 	c #EDB051",
"3 	c #FFCC88",
"4 	c #FFB754",
"5 	c #EEB874",
"6 	c #EDA84C",
"7 	c #E9AB4E",
"8 	c #E9AA4D",
"9 	c #E6AD72",
"0 	c #E6AD55",
"a 	c #E8AE55",
"b 	c #E8B157",
"c 	c #E9B258",
"d 	c #E6AD54",
"e 	c #E9B056",
"f 	c #E6A64B",
"g 	c #E9A94B",
"h 	c #E6A647",
"i 	c #E6AD37",
"j 	c #EBB459",
"k 	c #E9B25E",
"l 	c #E9AF5B",
"m 	c #E9B174",
"n 	c #E9A948",
"o 	c #E9B038",
"p 	c #E6AB58",
"q 	c #E6AE56",
"r 	c #E6A84D",
"s 	c #EDB060",
"t 	c #EDAD4C",
"u 	c #EDB76A",
"v 	c #FFCC75",
"w 	c #FFBB55",
"x 	c #FFC459",
"y 	c #EDB043",
"z 	c #FFC44A",
"A 	c #EDB740",
"B 	c #E6A24C",
"C 	c #E6A34B",
"D 	c #E6933C",
"E 	c #E6A858",
"F 	c #E6AB52",
"G 	c #E6A842",
"H 	c #E6AE3C",
"I 	c #ECA54C",
"J 	c #ED9C40",
"K 	c #FFC468",
"L 	c #FFC354",
"M 	c #FFC054",
"N 	c #FFB54F",
"O 	c #FFB34D",
"P 	c #FFBF59",
"Q 	c #FFBC58",
"R 	c #FFC677",
"S 	c #FFCC4D",
"T 	c #F3AA4C",
"U 	c #F1A749",
"V 	c #F4BE5F",
"W 	c #F1BC5D",
"X 	c #F3A445",
"Y 	c #F4AE51",
"Z 	c #F1B053",
"` 	c #F0AE52",
" .	c #F3BD71",
"..	c #F3B958",
"+.	c #E6AA62",
"@.	c #F3B34F",
"#.	c #F3B755",
"$.	c #F7BB5A",
"%.	c #F3BD4C",
"&.	c #F4A343",
"*.	c #FFCC80",
"=.	c #FFCC42",
"-.	c #FFC25D",
";.	c #FFB855",
">.	c #FF9933",
",.	c #FFAA43",
"'.	c #FFA81E",
").	c #FFA842",
"!.	c #FF750F",
"~.	c #FFB451",
"{.	c #FFAA22",
"].	c #FFA439",
"^.	c #FFCC3E",
"/.	c #FFC83A",
"(.	c #FFC638",
"_.	c #FEB351",
":.	c #FF9F39",
"<.	c #FFA43E",
"[.	c #FFAA44",
"}.	c #FFAA47",
"|.	c #FF7104",
"1.	c #FF952F",
"2.	c #F7B554",
"3.	c #F9AE4F",
"4.	c #F7C261",
"5.	c #F7AE4F",
"6.	c #FFCC44",
"7.	c #FFCC33",
"8.	c #F7A01D",
"9.	c #F7A03F",
"0.	c #F7C254",
"a.	c #E69D45",
"b.	c #F4B456",
"c.	c #FFBE5A",
"d.	c #F1BC46",
"e.	c #F1A446",
"f.	c #F1A732",
"g.	c #E69E48",
"h.	c #E69942",
"i.	c #F4A332",
"j.	c #F4AD4E",
"k.	c #F9BF5D",
"l.	c #F9BB59",
"m.	c #ECAE54",
"n.	c #FFC560",
"o.	c #FFCC8E",
"p.	c #FECB8E",
"q.	c #FCB14F",
"r.	c #EAB376",
"s.	c #F0BB5D",
". . . . . . . . . . . . . . . . . . . . . . . . . . . . . . . . . . . . . . . + + + + . + + + + + + + + + + + . + + + + + + . + + + . + + + . + + + + + + + + + + + + + + + + + + + + . + . . . . . . . . . . . . . . . . . . . . . . . . . . . . . . . . . . . ",
"@ @ @ @ @ @ @ @ # # @ @ @ @ @ @ @ @ @ @ @ # @ @ @ @ @ @ @ @ @ @ @ @ @ @ @ @ # $ $ $ $ # $ $ $ % % % $ $ $ % % # $ % $ $ % % # % % % # % % $ # % $ $ $ $ $ % $ $ $ $ $ $ $ % $ $ $ $ $ # @ @ @ @ @ @ # # @ @ @ @ @ @ @ @ @ @ @ @ @ @ @ @ @ @ @ @ @ @ @ @ @ @ @ @ ",
"& & * & & & & & & & & = & & & & & & & * * * * * * * * * & & & & & * & * * * - * * * * - * * * - - - * * * - - - * - * * - - - - - - - - - - - - * * * * * - * * * * * * * - * * * * * * * * * * * * * = & & * & & & & & & & & & & & & & & & & * * * * * * * * * ",
"; ; > ; ; ; ; ; ; ; ; ; ; ; ; ; ; ; ; ; > > > > > > > > ; ; ; ; ; > ; > > > > > > > > > > > > > > > > > > > > > > > > > > > > > > > > > > > > > > > > > > > > > > > > > > > > > > > > > > > > > > > > ; ; ; ; ; ; ; ; ; ; ; ; ; ; ; ; ; ; ; ; > > > > > > > > > ",
", , , , , , , , , , , , , , , , ' ) ) ! ~ ~ , , , , , , { ) , , , , , , , , , ~ , , , , , , , , , , , , , , , , , , , , , , , , , , , , , , , , , , , , , , , , , , , , , , , , { ) , , , , , , , , , , ' ) ) ! , , , , , , ] ^ , , , , , , , , , , , , , , , , ",
"/ / / / / / / / / / / / / / / ( ! ! ! ! / / / ! / / / / / / / / / / / / / / / ! / / / / / / / / / / / / / / / / / / / / / / / / / / / / / / / / / / / / / / / / / / / / / / / / / / / / / / / / / / / / _ ! ! : / / / / / / / / / / / / / / / / / / / / / / / / ",
"^ ^ ^ ^ ^ < < < < < < < [ [ < } | < < < [ [ [ | < < < < < | | < < < < < < < < 1 2 1 1 2 1 1 2 3 3 3 3 3 3 3 3 ^ ^ ^ ^ ^ ^ ^ ^ ^ ^ ^ ^ ^ ^ ^ ^ 4 ^ ^ ^ ^ ^ ^ ^ ^ ^ ^ ^ ^ ^ ^ ^ ^ ^ ^ ^ ^ ^ ^ ^ / ( ( / / ( / ! 3 3 5 5 5 5 5 5 [ < < < [ < < < < < < < < [ [ < 6 ",
"7 7 8 8 8 9 0 0 0 0 0 0 0 0 0 a b b b b c c c b b b b b b d b b e e 0 { 0 f 7 g h h f i d d a j k l l l l l k 8 7 7 8 8 8 m e e j e e j b b j 0 c c c c c j e j c c c c b j b b b b b e e 7 8 n n n g o a e e & k p p p p p q f f f r 8 8 9 e e b b e 0 b c j a ",
"6 6 [ } } } 2 s } 7 t t t 1 u v ~ ! , ] , , , , , , , , , 1 ! 1 w x t t t y z o A A [ 6 6 B B f C D D D D D D B B B 0 r r r r E h f f f f F = = d F F F F F F F F F F F 1 F d 7 f f f h f G G H H H 0 t I 6 6 6 6 J J J J J J I 6 I [ ( x / / K L w M M M , v v ",
"N O P Q P P ^ v / / ! ! / M R R M w L L L M M M L L M M L w M M L / L L / S S ^ ^ ^ O O N T T U U V V W W X X T T T Y Z ` ` V  ...........Z +.+.h f @.@.f @.f @.@.@.@.@.Q @.@.@.@.#.@.@.$.%.%.W W V &.O O O O O O ^ ^ ^ ^ O O O O O P P Q Q ^ *.! / / / / M R R ",
"=.^ -./ / -.4 ;.4 4 ;.^ ^ , ] ] , , ] , ] ] ] , ] , / , , , M M w L M M ( =.^ ^ ^ ^ >.^ ^ ^ ^ ,.'.).'.,.).>.!.,.=.^ -./ -./ ;.~.~.;.~.^ ^ ! _ _ _ _ ] ] _ , _ / , , ] , ! , L w w L Q L ( =.^ ^ ^ ^ >.^ ^ ^ ^ ).'.).{.).).>.!.,.=.^ / -./ -.~.;.4 ~.;.^ ^ , , , ",
"].^ ^.^.^./.(.] ] O _.~.^ ] , ^ ) , , , ^ ^ ^ ) ) ) ) ) ^ ^ ^ ^ ^ ^ ^ M M M / ! ~ ^ :.] / ^ <.>.[.}.[.[.[.|.1.:.].^ ^.^.^././.] ] O _.~.^ , ] ^ ] , ^ ] ^ ^ ^ ^ ^ ^ ^ ^ ^ ^ ^ ^ ^ , ^ M M L ( ~ , ^ :./ / ^ <.>.[.}.[.[.[.|.1.:.].^ ^.^.^./.(., , O _.O ^ { ] { ",
"2.2.2.2.2.Y Y 3.Y 4.4.4.$.Y 5.4 4 ;.;.;.-.-.-.} } } } } $.$.$.$.$.$.$.4.4.4.^ 6.7.: ^ [.[.;.Q ,.[.[.[.[.[.{.[.: ;.Q Q ;.Q 4 ;.;.;.^ ^ ^ -.;.;.;.;.;.4 4 -.-.-.-.-.-.-.-.-.-.-.-.( -.-.^ ^ ^ ^ 6.7.: 4.&.:.2.2.&.:.&.:.&.&.8.9.0.2.2.2.;.;.;.;.;.;.^ ^ < } I } I ",
"a.a.a.a.a.a 0 V V Y Y Y b.V V ^ ^ ^ ^ ^ c.P c.c.P P P P #.b.b.b.b.b.b.Y B B W W d.d.W W W e.e.U U U U U U U U f.e.e.e.e.e.^ ^ ^ ^ P P ;.c.^ ^ ^ ^ ^ ^ ^ P P c.P c.c.c.c.c.c.P P P P ` ` ` } W W d.d.q 0 d g.a.h.h.h.h.X &.&.&.i.5.j.j.N ~.^ ^ ^ ^ ;.P ;.P ^ ^ ^ ",
"{ { { { { { { ~.~.] / ] ^ ^ ^ ^ ^ ^ ^ ^ ^ ^ ^ ^ ^ ^ ^ ^ ^ ^ ^ ^ ^ ^ ^ ] k.k.3.{ { { { { { { ' l.l.l.l.l.l.l.l.l.0 { 0 0 b j | I I m.a } | | | | | | | | | | | | | | | | | | j j j j 0 F f F g.0 0 { { { { { { $.$.l.l.P Q P P P ^ ^ ^ ^ ^ ^ ^ 4 4 ] ] n.^ ^ ^ ^ ",
"_.~.~.~.~.~.~.^ ^ ^ ^ ^ ^ ^ ^ ^ o.o.o.o.o.o.p.p.p.p.o.o.o.o.p.^ ^ ^ ^ ^ ^ ^ ^ ~.~.~.~.~.~.~._.~._.~.~.~.~.~.~.~.~.~.~.~.q.~.~.^ ) ^ ^ ^ ^ ^ ) ^ r.r.r.r.r.r.r.r.r.r.r.r.p.p.p.^ ^ ^ ^ ^ ^ ^ ^ _._.~.~.~.~.~.~.~._._._.~._._._.~.~.~.~.~._._._.^ ^ ^ ^ ^ ^ ^ ^ ^ ",
"P -.-.-.-.-.c.-.-.P -.-.-.c.-.-.-.-.( c.-.-.-.c.-.-.-.c.-.-.-.P -.-.-.-.P -.-.^ ^ ^ ^ ^ ^ ^ ^ ^ ^ ^ ^ ^ ^ -.-.-.( -.-.-.-.-.-.-.c.-.-.( c.-.c.-.-.( c.-.c.-.-.( c.-.-.-.-.-.-.-.-.-.-.-.-.-.-.^ ^ ^ ^ ^ ^ ^ ^ ^ ^ ^ ^ ^ ^ -.-.-.-.( ( c.-.c.-.-.-.-.-.c.-.-.-.c.",
"c.-.c.c.P P -.` ` ` ` ` ` ` ` ` ` ` ` c.` ` ` ` ` ` ` ` ` ` ` ` ` ` ` ` ` ` ` s.s.s.s.s.s.s.s.s.s.s.s.^ ^ c.c.c.c.-.c.c.P c.P -.-.c.-.c.c.-.-.c.-.c.c.-.-.c.-.c.c.c.c.-.P c.c.P c.-.P c.c.P -.^ ^ ^ ^ ^ ^ ^ ^ ^ ^ ^ ^ s.s.` ` ` } } ` ` ` ` ` c.` ` ` ` ` ` ` ` ",
"^ ^ ^ ^ ^ ^ ^ ' ' ' ' ' ' ' ' ' ' ' ' ^ ' ' ' ' ' ' ' ' ' ' ' ' ' ' ' ' ' ' ' ' ' ' { ' ' q 0 0 q q 0 j j j j j j j j j j j j j j j j j j j j j j j j j j j j j j j j j j j j j j j j j j j j j j j ^ ^ ^ ^ ^ ^ ^ ^ ^ { { { ' ' ' ' ' ' ' ' ' ^ ' ' ' ' ' ' ' ' "};
