/* XPM */
static char * bottom_left_active_xpm[] = {
"19 19 197 2",
"  	c None",
". 	c #5C1E00",
"+ 	c #974A27",
"@ 	c #B36C52",
"# 	c #FBF66A",
"$ 	c #6A4119",
"% 	c #A75F31",
"& 	c #D38657",
"* 	c #864026",
"= 	c #7E401E",
"- 	c #BE7947",
"; 	c #A57E5A",
"> 	c #D78854",
", 	c #BE6B52",
"' 	c #AC6135",
") 	c #CD8F5F",
"! 	c #8D4719",
"~ 	c #FFC55C",
"{ 	c #E6B75F",
"] 	c #F6D272",
"^ 	c #85391A",
"/ 	c #A75A30",
"( 	c #A7573B",
"_ 	c #A2572B",
": 	c #BC7B4B",
"< 	c #9C5427",
"[ 	c #FFFD6F",
"} 	c #9D5736",
"| 	c #974A33",
"1 	c #641C00",
"2 	c #732703",
"3 	c #D78A5C",
"4 	c #9D542B",
"5 	c #C37B50",
"6 	c #FFC962",
"7 	c #FFCC66",
"8 	c #FFC661",
"9 	c #B36C45",
"0 	c #A56133",
"a 	c #541500",
"b 	c #5A1A00",
"c 	c #BE7843",
"d 	c #AA673E",
"e 	c #AA5C26",
"f 	c #C97952",
"g 	c #CB834D",
"h 	c #AC6239",
"i 	c #B4673B",
"j 	c #A55F39",
"k 	c #AF6E38",
"l 	c #EEB85B",
"m 	c #B35F33",
"n 	c #B96635",
"o 	c #B96742",
"p 	c #A75729",
"q 	c #B4643E",
"r 	c #A25C35",
"s 	c #C88A4B",
"t 	c #E6AD55",
"u 	c #E6AD72",
"v 	c #E9AA4D",
"w 	c #E9AB4E",
"x 	c #9C5229",
"y 	c #A1543D",
"z 	c #BB6F3E",
"A 	c #974D29",
"B 	c #A15945",
"C 	c #985230",
"D 	c #C37D43",
"E 	c #EDAD4C",
"F 	c #EDA84C",
"G 	c #EDB060",
"H 	c #EDB051",
"I 	c #EDB75B",
"J 	c #B46C45",
"K 	c #A75939",
"L 	c #9A522C",
"M 	c #B16C47",
"N 	c #98571A",
"O 	c #FFBD59",
"P 	c #FFB34D",
"Q 	c #B36735",
"R 	c #95481E",
"S 	c #AE693D",
"T 	c #D09354",
"U 	c #9A570C",
"V 	c #F2AA6F",
"W 	c #FFB754",
"X 	c #FFCC42",
"Y 	c #83391A",
"Z 	c #AA5F45",
"` 	c #D78D52",
" .	c #BC743E",
"..	c #C37B3B",
"+.	c #B36631",
"@.	c #8D470D",
"#.	c #B76C27",
"$.	c #B6693B",
"%.	c #FFC638",
"&.	c #FFC83A",
"*.	c #FFA439",
"=.	c #A45A3E",
"-.	c #CB8040",
";.	c #D7955D",
">.	c #B9663E",
",.	c #C0783E",
"'.	c #C67E47",
").	c #7E3615",
"!.	c #5A0F00",
"~.	c #520500",
"{.	c #500300",
"].	c #4A0000",
"^.	c #380000",
"/.	c #400000",
"(.	c #4F0200",
"_.	c #9F4B36",
":.	c #F7B554",
"<.	c #B16931",
"[.	c #AE6140",
"}.	c #A76227",
"|.	c #A9613E",
"1.	c #B36235",
"2.	c #E9A46F",
"3.	c #A45433",
"4.	c #9A4A24",
"5.	c #9C431F",
"6.	c #B45C39",
"7.	c #B15A3B",
"8.	c #9C4733",
"9.	c #691907",
"0.	c #974229",
"a.	c #AF6231",
"b.	c #C17645",
"c.	c #B9935F",
"d.	c #B67338",
"e.	c #AF6F38",
"f.	c #9A5536",
"g.	c #90452B",
"h.	c #A7592E",
"i.	c #9F4B27",
"j.	c #9F4A29",
"k.	c #A75233",
"l.	c #9D472B",
"m.	c #9A452B",
"n.	c #A44B3B",
"o.	c #A44A36",
"p.	c #6C1E00",
"q.	c #BC6943",
"r.	c #A46123",
"s.	c #AA5A4A",
"t.	c #B96F4A",
"u.	c #AC6C4F",
"v.	c #9C4F24",
"w.	c #9F5230",
"x.	c #9C4B2B",
"y.	c #661400",
"z.	c #8B3527",
"A.	c #8D3819",
"B.	c #AC5D29",
"C.	c #B16426",
"D.	c #B17952",
"E.	c #9D6942",
"F.	c #C68B6C",
"G.	c #D3926C",
"H.	c #DA906B",
"I.	c #9A482B",
"J.	c #AC5A2E",
"K.	c #A9572C",
"L.	c #520700",
"M.	c #430000",
"N.	c #8D3D23",
"O.	c #88382C",
"P.	c #A45724",
"Q.	c #97521A",
"R.	c #AE7E54",
"S.	c #A16F3E",
"T.	c #A2673B",
"U.	c #B77D4A",
"V.	c #A25226",
"W.	c #B16138",
"X.	c #9D4D24",
"Y.	c #95421C",
"Z.	c #7E2E14",
"`.	c #7E3014",
" +	c #803023",
".+	c #93622E",
"++	c #8A4F1F",
"@+	c #9A6131",
"#+	c #81431A",
"$+	c #6E2102",
"%+	c #691700",
"&+	c #742103",
"*+	c #5F0D00",
"=+	c #5A0A00",
"-+	c #691900",
";+	c #611502",
">+	c #6B270C",
". + + + @ # # # # $ $ $ $ $ $ $ $ $ $ ",
"% & * * = - # # # # ; ; ; ; ; ; ; ; ; ",
"+ > , ' ) ! ~ # # # { { { { { { ] { { ",
"^ / ( _ : < ~ ~ # # # # # # # # [ # # ",
"} | 1 2 3 4 5 6 6 6 6 6 6 6 6 6 7 8 6 ",
"9 0 a b c * d ~ ~ ~ ~ ~ ~ ~ ~ ~ ~ ~ ~ ",
"e f g h i j k l l l l l l l 7 7 7 7 7 ",
"m n o p q r s t t t t t t u v v w w v ",
"x y z A B C D E E E F G H H H H I F F ",
"J c K L } M N ~ ~ ~ 8 ] 7 O O O O P P ",
"_ z Q R S T U V W W W W W 8 8 8 8 7 X ",
"Y Z - `  ...+.@.#.$.8 8 %.&.&.X &.7 *.",
"R =.-.;.>.,.$.'.N ).!.~.{.].^./.(._.:.",
"<.[.}.- |.f 1.2._ 3.4.5.6.7.* * 8.9.0.",
"_ a.: b.c.m d.e.f.g.h.i.j.k.l.m.n.o.p.",
"q.r.s.- t.} d.< u.[.v.w.3.x.].y.z.8.A.",
"  4 B.C.D.E.F.G.H.I.J._ 1.K.L.M.N.O.A ",
"    P.Q.R.S.T.U.S v.V.W.X.Y.A.Z.`. +).",
"        c..+++@+#+1 p.$+%+&+*+=+-+;+>+"};
