/* XPM */
static char * bottom_inactive_xpm[] = {
"128 19 86 1",
" 	c None",
".	c #763808",
"+	c #753807",
"@	c #A86836",
"#	c #AD7040",
"$	c #A66633",
"%	c #AB6E3D",
"&	c #AA6C3A",
"*	c #CDA27F",
"=	c #DFC5B0",
"-	c #E4CCB9",
";	c #CCA17D",
">	c #F1E2D6",
",	c #F5EBE3",
"'	c #DBB79C",
")	c #DBB79B",
"!	c #DCBA9E",
"~	c #DAB69A",
"{	c #D9B497",
"]	c #D8B396",
"^	c #D9B498",
"/	c #D9B598",
"(	c #D7B295",
"_	c #DCBA9F",
":	c #DDBBA1",
"<	c #CFA482",
"[	c #D0A583",
"}	c #CFA381",
"|	c #C69670",
"1	c #CB9F7B",
"2	c #CA9D79",
"3	c #CCA07C",
"4	c #DEBEA5",
"5	c #D1A685",
"6	c #DEBDA3",
"7	c #CFA483",
"8	c #C89872",
"9	c #C89A75",
"0	c #C79872",
"a	c #C89A74",
"b	c #CA9C77",
"c	c #C39068",
"d	c #C6956E",
"e	c #C5946D",
"f	c #C3916A",
"g	c #CB9D78",
"h	c #CB9C78",
"i	c #CA9B77",
"j	c #C6956F",
"k	c #C79770",
"l	c #C4936B",
"m	c #DAB79B",
"n	c #DBB89D",
"o	c #D5AE90",
"p	c #CC9F7C",
"q	c #C29067",
"r	c #C28E65",
"s	c #BA8256",
"t	c #C79771",
"u	c #C18C63",
"v	c #BF8A60",
"w	c #D7B193",
"x	c #D7B294",
"y	c #DBB89C",
"z	c #D4AC8D",
"A	c #D6B091",
"B	c #D3AB8B",
"C	c #D1A887",
"D	c #C5936B",
"E	c #D2AA8A",
"F	c #D0A684",
"G	c #CDA07C",
"H	c #D7B093",
"I	c #CEA27F",
"J	c #D6AF91",
"K	c #D5AE8F",
"L	c #AC703F",
"M	c #BF895F",
"N	c #C08C63",
"O	c #D0A785",
"P	c #D1A888",
"Q	c #CEA380",
"R	c #C4936C",
"S	c #DEBDA4",
"T	c #CA9A75",
"U	c #C99B76",
".......................................++++.+++++++++++.++++++.+++.+++.+++++++++++++++++++++....................................",
"@@@@@@@@@@@@@@@@@@@@@@@@@@@@@@@@@@@@@@#$$$$#$$$%%%$$$%%#$%$$%%#%%%#%%%#%$$$$$&$$$$$$$&$$$$$@@@@@@@@@@@@@@@@@@@@@@@@@@@@@@@@@@@@@",
"**=****************=========*****=*===-====-===---===---=-==--------------===-==-==-=-=============***=****;***********=========",
">>,>>>>>>>>>>>>>>>>,,,,,,,,,>>>>>,>,,,,,,,,,,,,,,,,,,,,,,,,,,,,,,,,,,,,,>,,,,,,,,,>,,,,,,,,,,,,,,,,>>>,>>>>>>>>>>>>>>>>,,,,,,,,,",
"''')''''))''''))'''''''''')!''''''''''))'''''')''''''''''''''''''''''''''''')'''''''''''''''''))'''~'''')!)!''')''!)''!'''''''''",
"{{{{{{{{])]^^]]))]{{{{{{)]]{{{{{{{{{^]]){{{{{{]){{{]{{{{{{{{{{{]{{{{{{{{]^]]]]]^^]]^{{{{]]{]{{)]{^]]]]]^//({{{{{)]{{)((/{{{{]]])",
"__:__<<<<<<<[}<|}[}<<<<<}}<<<<<<<<<}}<}122;32;244444444!_________:_:___5:_:__::_:_::____::_:___]]]]]])]4677777[<}<<<}}<<<<[<<<}|",
"8||||9888888880a9bbbbbbb29bbb828b98]9cdceffd0002g9999b9|8|8||22b29292gg9gggg2gg2gghgggggiiii2||djkk9992g200d000cfflde2abb99b9bb8",
"dd}222229999a1<:mm/n'/'/))')/1'1o(9i92]p*p*edqcrcssssssccc8ldcddqffffd89ttdkkdkkkkktpttkceccfec|tk8kddddduuvuuuddd*]w]]]oxoowy::",
"}}zzzz_6){){/o''oAAAoxoxxoooxoxoo)oo)'~___[[[9999BCBBcD999bbbbEEFFF<[*00cc*;f*q*p*GGHGGpp[**<5EEBCc[}[}}}____[I[}}zBzz_6){{){o_~",
"'!xxxx5555[_!)))!mn/!/)/))/)))ooooJJ]~____u____9ktk89u%9)_]w]w55C[C!_)zzoz))A)z)~y~~~~HKoHoo])!!__u____9k8|99uL9)_xxw]55[55__)))",
"d!)))]w{]**[!)))m/m/!:!))))/!:!!'::Jo]]___c)]_tuhh9h9&Mfd_))~]w{{**<!)))))))______________']o(x!_:c]{_kN9h999&Mcd_)))]x{]**p)]]]",
"77<7722ggzzxCgh57OOP((xbaaaaPPPPPPPozx_))!!9bEB9h99ii92!BBzBBC5CC___x55C5C55xwwwwwwHwwwwHww____!~_xuf<<qrcfqcucA<77BEC5C5__[8|tt",
"vvvMv00Bzgg9*BB_::!:zzzzooozQ1QQ1QQiuuCC<5E5Cld|kk|||||dcdcdd_::_BBBz_______zzzzKzKKzzzzzzhg225C55888vMMMMMcclcf2ii5[____BEBz___",
"((xx((x<[]]]____!:!::!:!:!:n:::'!!!/zzbxx(xxxx(EEPEEEEEE9x888p*ccb99*p*p***pg****p******g*8dRdv88w]x((xEEEEzxzoo_______[[]]]____",
"<<<<<<<!________SSSSSSS444SSSSS::!!!!6!<<<<}<<<<[[[}[[}<}<}*I[I~yyy_!)!!*p*p**G**ppp666___y_)!!*I[[}<<<<[[}}<<[<<<<<<}}!________",
"wwwwAAAAAAAAAAAAAxoxxoxwAAKAAAAAxoxzwAA_____!!!!!!!!!xxxxxxxxxxxwAxxAxxAxzxxxAxzxAxzxxxAxzxxxAx!_____________AAAxxzwAAAwAAKAAAAA",
"zzzozwz9hTg9hTg9UUbz9b998hg9gT8h9b9h8gb[FCFFCFOOOC7!!zzzzzzzzzzzxzzzzzzzxzzzzzxzzzxzzzzzxzzzzzo!___________[[Tg9999b9hhz8hg9gT8h",
"_______]w{]]w{]](/(!((/({{]]]]{{((/{{{{]/x{/{000a00*;3333333GG*GGGG333*G3333*333*33333*33333*333GG_________]{{]]]]{]]]]_{{]]]]{{"};
