/* XPM */
static char * close_pressed_xpm[] = {
"13 13 66 1",
" 	c None",
".	c #8D420E",
"+	c #702E00",
"@	c #893F0B",
"#	c #883E0A",
"$	c #502000",
"%	c #5D2600",
"&	c #954B19",
"*	c #863B07",
"=	c #742F00",
"-	c #833703",
";	c #7A3200",
">	c #652900",
",	c #7E3300",
"'	c #722E00",
")	c #534033",
"!	c #FFFFFF",
"~	c #4C1F00",
"{	c #803400",
"]	c #451C00",
"^	c #C4BFBB",
"/	c #642800",
"(	c #823602",
"_	c #6F2D00",
":	c #783100",
"<	c #763000",
"[	c #542200",
"}	c #7C3200",
"|	c #602700",
"1	c #8B7F77",
"2	c #E1DEDD",
"3	c #6B2B00",
"4	c #5B2500",
"5	c #9C5422",
"6	c #3E1900",
"7	c #2F1300",
"8	c #853A06",
"9	c #8C410D",
"0	c #833804",
"a	c #843905",
"b	c #8F4411",
"c	c #512100",
"d	c #622800",
"e	c #592400",
"f	c #491E00",
"g	c #6D2C00",
"h	c #C6BFBB",
"i	c #2C1200",
"j	c #924815",
"k	c #532200",
"l	c #ABA099",
"m	c #904512",
"n	c #382011",
"o	c #562300",
"p	c #4E2000",
"q	c #944A17",
"r	c #AA683A",
"s	c #99501E",
"t	c #361600",
"u	c #974E1B",
"v	c #481D00",
"w	c #914713",
"x	c #984F1D",
"y	c #813501",
"z	c #5E2600",
"A	c #692B00",
"    .+@#$    ",
"  %&*=-;>,>  ",
" ')!~-{@]!^/ ",
" (_!!:<[!!}| ",
";=;_!1'2!3-(4",
"&5{*6!!!7(89/",
"0a=b;!!!cd<ef",
"g930h!7!i_'(>",
"j:-k!lmn!|=op",
" q@!!9r,!!o> ",
" st!>#suv!)= ",
"  &{w-mjb:>  ",
"    xyrzA    "};
