/* XPM */
static char * close_prelight_xpm[] = {
"13 13 125 2",
"  	c None",
". 	c #D49564",
"+ 	c #C27C53",
"@ 	c #DB8E67",
"# 	c #DB8E5F",
"$ 	c #B36445",
"% 	c #B36F46",
"& 	c #D89E73",
"* 	c #D18D61",
"= 	c #CA7F52",
"- 	c #D4865A",
"; 	c #D17F55",
"> 	c #C77253",
", 	c #D08159",
"' 	c #BC7553",
") 	c #C67A60",
"! 	c #814C1B",
"~ 	c #613500",
"{ 	c #A26738",
"] 	c #D2885C",
"^ 	c #CE8458",
"/ 	c #DD8E6C",
"( 	c #A25F39",
"_ 	c #7D4619",
": 	c #C07055",
"< 	c #CF865B",
"[ 	c #C37954",
"} 	c #70410D",
"| 	c #653803",
"1 	c #C28259",
"2 	c #C18057",
"3 	c #AC694D",
"4 	c #643603",
"5 	c #6D3E09",
"6 	c #CD825A",
"7 	c #C06E55",
"8 	c #C38357",
"9 	c #BF7F5E",
"0 	c #C5835E",
"a 	c #BA7D4B",
"b 	c #7B4B19",
"c 	c #C07C61",
"d 	c #794715",
"e 	c #BD7B42",
"f 	c #D1895E",
"g 	c #D0865F",
"h 	c #BA6B55",
"i 	c #E69B76",
"j 	c #E8A472",
"k 	c #CA855E",
"l 	c #D48B61",
"m 	c #935D2F",
"n 	c #754314",
"o 	c #8B5127",
"p 	c #D18660",
"q 	c #D28D58",
"r 	c #DB9175",
"s 	c #BC7254",
"t 	c #D6885A",
"u 	c #D68966",
"v 	c #C97E52",
"w 	c #E0946F",
"x 	c #C5835C",
"y 	c #623500",
"z 	c #B06550",
"A 	c #BD7153",
"B 	c #CA7F58",
"C 	c #B76D4A",
"D 	c #AB6047",
"E 	c #C07761",
"F 	c #D89364",
"G 	c #BD7758",
"H 	c #CE8875",
"I 	c #824E20",
"J 	c #855024",
"K 	c #834D20",
"L 	c #C57956",
"M 	c #CA7B5D",
"N 	c #D18463",
"O 	c #C0745D",
"P 	c #DD9A67",
"Q 	c #C97F62",
"R 	c #CE8864",
"S 	c #A56B44",
"T 	c #825019",
"U 	c #DB9672",
"V 	c #824E1A",
"W 	c #B37248",
"X 	c #CD7C5A",
"Y 	c #B8674F",
"Z 	c #B06347",
"` 	c #E29A69",
" .	c #D88F65",
"..	c #6A3C08",
"+.	c #6A3E08",
"@.	c #D5964E",
"#.	c #F9B681",
"$.	c #C9864D",
"%.	c #673905",
"&.	c #683906",
"*.	c #B4684D",
"=.	c #C07452",
"-.	c #E4A171",
";.	c #8D5823",
">.	c #B3783E",
",.	c #D8905E",
"'.	c #E9A267",
").	c #E7A05D",
"!.	c #A26233",
"~.	c #7F4B1C",
"{.	c #C57E5D",
"].	c #DCA06D",
"^.	c #D0835E",
"/.	c #DB9962",
"(.	c #D2895F",
"_.	c #DB9865",
":.	c #DF9961",
"<.	c #DE956E",
"[.	c #CC7F5E",
"}.	c #C37351",
"|.	c #E5A072",
"1.	c #CC865B",
"2.	c #F5B685",
"3.	c #B37049",
"4.	c #BD7655",
"        . + @ # $         ",
"    % & * = - ; > , '     ",
"  ) ! ~ { ] ^ / ( ~ _ :   ",
"  < [ } | 1 2 3 4 5 6 7   ",
"8 9 0 a ~ b c d ~ e f g h ",
"i j k l m ~ n ~ o p q r s ",
"t u v w x y ~ ~ z A B C D ",
"E F G H I ~ J ~ K L M N O ",
"P Q R S ~ T U V ~ W X Y Z ",
"  `  ...+.@.#.$.%.&.*.=.  ",
"  -.;.~ >.,.'.).!.~ ~.{.  ",
"    ].^./.(._.:.<.[.}.    ",
"        |.1.2.3.4.        "};
