/* XPM */
static char * close_active_xpm[] = {
"13 13 138 2",
"  	c None",
". 	c #C87637",
"+ 	c #B05520",
"@ 	c #D06D3B",
"# 	c #D16D30",
"$ 	c #9D360E",
"% 	c #9D4510",
"& 	c #CD824A",
"* 	c #C46B32",
"= 	c #BB5A1F",
"- 	c #C86329",
"; 	c #C45A23",
"> 	c #B64921",
", 	c #C25C28",
"' 	c #A84D21",
") 	c #B55331",
"! 	c #AE531D",
"~ 	c #CE7F44",
"{ 	c #C36933",
"] 	c #C5652C",
"^ 	c #C06027",
"/ 	c #D36D41",
"( 	c #C55935",
"_ 	c #B85119",
": 	c #9D3C12",
"< 	c #AD4623",
"[ 	c #C1622B",
"} 	c #BB5829",
"| 	c #EE9059",
"1 	c #B95E2B",
"2 	c #C46D3A",
"3 	c #AF5B26",
"4 	c #A4482A",
"5 	c #8E2A10",
"6 	c #C96528",
"7 	c #C96532",
"8 	c #AD4323",
"9 	c #B25F26",
"0 	c #AC592F",
"a 	c #B45F2F",
"b 	c #CF7A3B",
"c 	c #9A4424",
"d 	c #C47140",
"e 	c #B05835",
"f 	c #B95E2A",
"g 	c #A74613",
"h 	c #D4752A",
"i 	c #C4662F",
"j 	c #C26230",
"k 	c #A64023",
"l 	c #DF7E4E",
"m 	c #E18948",
"n 	c #BB612F",
"o 	c #C76933",
"p 	c #C67040",
"q 	c #D2823F",
"r 	c #A44A2B",
"s 	c #C46734",
"t 	c #AF4C28",
"u 	c #C46331",
"v 	c #C56B27",
"w 	c #D1714C",
"x 	c #A84822",
"y 	c #CA652A",
"z 	c #CA6739",
"A 	c #B9581F",
"B 	c #D77445",
"C 	c #C36B3C",
"D 	c #DA8E43",
"E 	c #AB5230",
"F 	c #B7592E",
"G 	c #A43F2A",
"H 	c #AA4721",
"I 	c #BA5A27",
"J 	c #A24215",
"K 	c #923111",
"L 	c #AE4F33",
"M 	c #CD7336",
"N 	c #AA4F27",
"O 	c #BF654C",
"P 	c #B05B2F",
"Q 	c #D17D37",
"R 	c #B35936",
"S 	c #BE632E",
"T 	c #B3542D",
"U 	c #B45224",
"V 	c #BA542D",
"W 	c #C46035",
"X 	c #AE4B2E",
"Y 	c #D37C3A",
"Z 	c #B95A34",
"` 	c #C06537",
" .	c #B56239",
"..	c #CB7648",
"+.	c #BA681C",
"@.	c #D17748",
"#.	c #B96120",
"$.	c #B25525",
"%.	c #D16F40",
"&.	c #BE5529",
"*.	c #A33B1C",
"=.	c #993511",
"-.	c #D97C3D",
";.	c #DB7943",
">.	c #BB662D",
",.	c #E99F51",
"'.	c #D88424",
").	c #F7A15C",
"!.	c #C76E24",
"~.	c #A6481A",
"{.	c #A44419",
"].	c #A84222",
"^.	c #AE4B1F",
"/.	c #DC8547",
"(.	c #DD843F",
"_.	c #C46D2D",
":.	c #D98334",
"<.	c #CD6F2F",
"[.	c #E2873B",
"}.	c #E0842D",
"|.	c #B6561D",
"1.	c #A1421B",
"2.	c #AA4F23",
"3.	c #B4582E",
"4.	c #D28442",
"5.	c #C25E2F",
"6.	c #D17B34",
"7.	c #C56730",
"8.	c #D17A38",
"9.	c #D57B33",
"0.	c #D47643",
"a.	c #BD5A2F",
"b.	c #B14A1E",
"c.	c #DD8448",
"d.	c #BD622B",
"e.	c #F2A061",
"f.	c #9D4613",
"g.	c #AA4E23",
"        . + @ # $         ",
"    % & * = - ; > , '     ",
"  ) ! ~ { ] ^ / ( _ : <   ",
"  [ } | 1 2 3 4 5 6 7 8   ",
"9 0 a b c d e f g h i j k ",
"l m n o p q r s t u v w x ",
"y z A B C D E F G H I J K ",
"L M N O P Q R S T U V W X ",
"Y Z `  ...+.@.#.$.%.&.*.=.",
"  -.;.>.,.'.).!.~.{.].^.  ",
"  /.(._.:.<.[.}.|.1.2.3.  ",
"    4.5.6.7.8.9.0.a.b.    ",
"        c.d.e.f.g.        "};
