/* XPM */
static char * hide_pressed_xpm[] = {
"13 13 56 1",
" 	c None",
".	c #8F4411",
"+	c #722E00",
"@	c #8C410D",
"#	c #8A400C",
"$	c #512100",
"%	c #5E2600",
"&	c #964D1A",
"*	c #883E0A",
"=	c #783100",
"-	c #833804",
";	c #7E3300",
">	c #692B00",
",	c #813501",
"'	c #672A00",
")	c #742F00",
"!	c #702E00",
"~	c #954B19",
"{	c #873C09",
"]	c #843905",
"^	c #823602",
"/	c #803400",
"(	c #582400",
"_	c #652900",
":	c #833703",
"<	c #7A3200",
"[	c #A35D2D",
"}	c #893F0B",
"|	c #451C00",
"1	c #853A06",
"2	c #863B07",
"3	c #622800",
"4	c #763000",
"5	c #924815",
"6	c #9E5625",
"7	c #6D2C00",
"8	c #8E4310",
"9	c #FFFFFF",
"0	c #5D2600",
"a	c #4C1F00",
"b	c #944A17",
"c	c #7C3200",
"d	c #904512",
"e	c #502000",
"f	c #934916",
"g	c #A96738",
"h	c #974E1B",
"i	c #AD6B3D",
"j	c #642800",
"k	c #9B5321",
"l	c #99501E",
"m	c #984F1D",
"n	c #6F2D00",
"o	c #914713",
"p	c #9A5120",
"q	c #602700",
"    .+@#$    ",
"  %&*=-;>,'  ",
" )!~{]^@/!(_ ",
" :<[/}<_|123 ",
";4;5%@</3.]:%",
"&6^*#&'17:{8_",
"129999999990a",
"!8999999999:>",
"bc]^d:5,)@=(e",
" &f:ghi#j%%' ",
" kl*m#kl)0n= ",
"  h^f]5boc>  ",
"    p^iq7    "};
