/* XPM */
static char * hide_prelight_xpm[] = {
"13 13 121 2",
"  	c None",
". 	c #D49564",
"+ 	c #C27C53",
"@ 	c #DB8E67",
"# 	c #DB8E5F",
"$ 	c #B36445",
"% 	c #B36F46",
"& 	c #D89E73",
"* 	c #D18D61",
"= 	c #CA7F52",
"- 	c #D4865A",
"; 	c #D17F55",
"> 	c #C77253",
", 	c #D08159",
"' 	c #BC7553",
") 	c #C67A60",
"! 	c #C07A50",
"~ 	c #D99C6E",
"{ 	c #D18B61",
"] 	c #D2885C",
"^ 	c #CE8458",
"/ 	c #DD8E6C",
"( 	c #D27F63",
"_ 	c #C8784D",
": 	c #B36848",
"< 	c #C07055",
"[ 	c #CF865B",
"} 	c #CA7E5A",
"| 	c #F2A97F",
"1 	c #C9835B",
"2 	c #D18E67",
"3 	c #C18057",
"4 	c #B9725A",
"5 	c #A85A46",
"6 	c #D58859",
"7 	c #D58861",
"8 	c #C06E55",
"9 	c #C38357",
"0 	c #BF7F5E",
"a 	c #C5835E",
"b 	c #DA9867",
"c 	c #B16E56",
"d 	c #D1916B",
"e 	c #C27E63",
"f 	c #C9835A",
"g 	c #BB7049",
"h 	c #DE945A",
"i 	c #D1895E",
"j 	c #D0865F",
"k 	c #BA6B55",
"l 	c #E69B76",
"m 	c #E8A472",
"n 	c #CA855E",
"o 	c #D48B61",
"p 	c #D3906B",
"q 	c #DC9E6B",
"r 	c #B9735B",
"s 	c #D18962",
"t 	c #C17559",
"u 	c #D18660",
"v 	c #D28D58",
"w 	c #DB9175",
"x 	c #BC7254",
"y 	c #D6885A",
"z 	c #D68966",
"A 	c #613500",
"B 	c #B76D4A",
"C 	c #AB6047",
"D 	c #C07761",
"E 	c #D89364",
"F 	c #D18463",
"G 	c #C0745D",
"H 	c #DD9A67",
"I 	c #C97F62",
"J 	c #CE8864",
"K 	c #C68666",
"L 	c #D79572",
"M 	c #CA8A4F",
"N 	c #DB9672",
"O 	c #C98553",
"P 	c #C37C56",
"Q 	c #DB906B",
"R 	c #CD7C5A",
"S 	c #B8674F",
"T 	c #B06347",
"U 	c #E29A69",
"V 	c #E3976E",
"W 	c #CA895D",
"X 	c #EEB578",
"Y 	c #E1A056",
"Z 	c #F9B681",
"` 	c #D48F56",
" .	c #BA724E",
"..	c #B96E4D",
"+.	c #BC6D54",
"@.	c #C07452",
"#.	c #E4A171",
"$.	c #E5A06B",
"%.	c #D18E5D",
"&.	c #E29F62",
"*.	c #D8905E",
"=.	c #E9A267",
"-.	c #E7A05D",
";.	c #C77C50",
">.	c #B66D4F",
",.	c #BD7755",
"'.	c #C57E5D",
").	c #DCA06D",
"!.	c #D0835E",
"~.	c #DB9962",
"{.	c #D2895F",
"].	c #DB9865",
"^.	c #DF9961",
"/.	c #DE956E",
"(.	c #CC7F5E",
"_.	c #C37351",
":.	c #E5A072",
"<.	c #CC865B",
"[.	c #F5B685",
"}.	c #B37049",
"|.	c #BD7655",
"        . + @ # $         ",
"    % & * = - ; > , '     ",
"  ) ! ~ { ] ^ / ( _ : <   ",
"  [ } | 1 2 3 4 5 6 7 8   ",
"9 0 a b c d e f g h i j k ",
"l m n o p q r s t u v w x ",
"y z A A A A A A A A A B C ",
"D E A A A A A A A A A F G ",
"H I J K L M N O P Q R S T ",
"  U V W X Y Z `  ...+.@.  ",
"  #.$.%.&.*.=.-.;.>.,.'.  ",
"    ).!.~.{.].^./.(._.    ",
"        :.<.[.}.|.        "};
