/* XPM */
static char * left_inactive_xpm[] = {
"8 24 6 1",
" 	c None",
".	c #6D3100",
"+	c #A05E28",
"@	c #CDA07C",
"#	c #DDBCA2",
"$	c #DAB79A",
".+@#$##@",
".+@#$##@",
".+@#$##@",
".+@#$##@",
".+@#$##@",
".+@#$##@",
".+@#$##@",
".+@#$##@",
".+@#$##@",
".+@#$##@",
".+@#$##@",
".+@#$##@",
".+@#$##@",
".+@#$##@",
".+@#$##@",
".+@#$##@",
".+@#$##@",
".+@#$##@",
".+@#$##@",
".+@#$##@",
".+@#$##@",
".+@#$##@",
".+@#$##@",
".+@#$##@"};
