/* XPM */
static char * left_active_xpm[] = {
"8 24 6 1",
" 	c None",
".	c #663300",
"+	c #CC6633",
"@	c #FFAE4C",
"#	c #FFCC66",
"$	c #FFCC33",
".+@#$##@",
".+@#$##@",
".+@#$##@",
".+@#$##@",
".+@#$##@",
".+@#$##@",
".+@#$##@",
".+@#$##@",
".+@#$##@",
".+@#$##@",
".+@#$##@",
".+@#$##@",
".+@#$##@",
".+@#$##@",
".+@#$##@",
".+@#$##@",
".+@#$##@",
".+@#$##@",
".+@#$##@",
".+@#$##@",
".+@#$##@",
".+@#$##@",
".+@#$##@",
".+@#$##@"};
