/* XPM */
static char * maximize_prelight_xpm[] = {
"13 13 99 2",
"  	c None",
". 	c #D49564",
"+ 	c #C27C53",
"@ 	c #DB8E67",
"# 	c #DB8E5F",
"$ 	c #B36445",
"% 	c #B36F46",
"& 	c #D89E73",
"* 	c #D18D61",
"= 	c #613500",
"- 	c #D17F55",
"; 	c #C77253",
"> 	c #D08159",
", 	c #BC7553",
"' 	c #C67A60",
") 	c #C07A50",
"! 	c #D99C6E",
"~ 	c #D18B61",
"{ 	c #DD8E6C",
"] 	c #D27F63",
"^ 	c #C8784D",
"/ 	c #B36848",
"( 	c #C07055",
"_ 	c #CF865B",
": 	c #CA7E5A",
"< 	c #F2A97F",
"[ 	c #C9835B",
"} 	c #B9725A",
"| 	c #A85A46",
"1 	c #D58859",
"2 	c #D58861",
"3 	c #C06E55",
"4 	c #C38357",
"5 	c #BF7F5E",
"6 	c #C5835E",
"7 	c #DA9867",
"8 	c #B16E56",
"9 	c #C9835A",
"0 	c #BB7049",
"a 	c #DE945A",
"b 	c #D1895E",
"c 	c #D0865F",
"d 	c #BA6B55",
"e 	c #E69B76",
"f 	c #BC7254",
"g 	c #D6885A",
"h 	c #AB6047",
"i 	c #C07761",
"j 	c #D89364",
"k 	c #BD7758",
"l 	c #CE8875",
"m 	c #C2805E",
"n 	c #CD865D",
"o 	c #C47B5D",
"p 	c #C57956",
"q 	c #CA7B5D",
"r 	c #D18463",
"s 	c #C0745D",
"t 	c #DD9A67",
"u 	c #C97F62",
"v 	c #CE8864",
"w 	c #C68666",
"x 	c #D79572",
"y 	c #C98553",
"z 	c #C37C56",
"A 	c #DB906B",
"B 	c #CD7C5A",
"C 	c #B8674F",
"D 	c #B06347",
"E 	c #E29A69",
"F 	c #E3976E",
"G 	c #CA895D",
"H 	c #EEB578",
"I 	c #D48F56",
"J 	c #BA724E",
"K 	c #B96E4D",
"L 	c #BC6D54",
"M 	c #C07452",
"N 	c #E4A171",
"O 	c #E5A06B",
"P 	c #D18E5D",
"Q 	c #E29F62",
"R 	c #E7A05D",
"S 	c #C77C50",
"T 	c #B66D4F",
"U 	c #BD7755",
"V 	c #C57E5D",
"W 	c #DCA06D",
"X 	c #D0835E",
"Y 	c #DB9962",
"Z 	c #DF9961",
"` 	c #DE956E",
" .	c #CC7F5E",
"..	c #C37351",
"+.	c #E5A072",
"@.	c #CC865B",
"#.	c #F5B685",
"$.	c #B37049",
"%.	c #BD7655",
"        . + @ # $         ",
"    % & * = = - ; > ,     ",
"  ' ) ! ~ = = { ] ^ / (   ",
"  _ : < [ = = } | 1 2 3   ",
"4 5 6 7 8 = = 9 0 a b c d ",
"e = = = = = = = = = = = f ",
"g = = = = = = = = = = = h ",
"i j k l m = = n o p q r s ",
"t u v w x = = y z A B C D ",
"  E F G H = = I J K L M   ",
"  N O P Q = = R S T U V   ",
"    W X Y = = Z `  ...    ",
"        +.@.#.$.%.        "};
