/* XPM */
static char * maximize_pressed_xpm[] = {
"13 13 56 1",
" 	c None",
".	c #96481A",
"+	c #7E2F00",
"@	c #934516",
"#	c #924315",
"$	c #592100",
"%	c #692700",
"&	c #9E5225",
"*	c #904112",
"=	c #FFFFFF",
"-	c #843505",
";	c #742B00",
">	c #863707",
",	c #722B00",
"'	c #803000",
")	c #7C2E00",
"!	c #9C5022",
"~	c #8F4011",
"{	c #853606",
"]	c #602400",
"^	c #702A00",
"/	c #893A0B",
"(	c #833303",
"_	c #AA643A",
":	c #4C1C00",
"<	c #8D3E0E",
"[	c #8E3F10",
"}	c #6D2800",
"|	c #813101",
"1	c #994C1E",
"2	c #672600",
"3	c #8C3D0D",
"4	c #541F00",
"5	c #954719",
"6	c #7A2D00",
"7	c #88390A",
"8	c #9B4F21",
"9	c #833404",
"0	c #974A1B",
"a	c #823202",
"b	c #582100",
"c	c #9D5124",
"d	c #9A4D20",
"e	c #B26E46",
"f	c #6F2900",
"g	c #A3592D",
"h	c #A1562A",
"i	c #A05528",
"j	c #652600",
"k	c #9F5427",
"l	c #873809",
"m	c #984B1D",
"n	c #A2582B",
"o	c #B6744D",
"p	c #6B2800",
"q	c #782D00",
"    .+@#$    ",
"  %&*==-;>,  ",
" ')!~==@{)]^ ",
" /(_{==^:<[} ",
"-|-12=={}.3/2",
"&===========^",
"<===========4",
")56<(==7+)'/;",
"89370==>'@a]b",
" cd/e==#f%%, ",
" gh*i==h'j6a ",
"  kld==8m9;  ",
"    n7opq    "};
