/* XPM */
static char * menu_prelight_xpm[] = {
"13 13 70 1",
" 	c None",
".	c #C87637",
"+	c #B05520",
"@	c #D06D3B",
"#	c #D16D30",
"$	c #9D360E",
"%	c #9D4510",
"&	c #CD824A",
"*	c #C46B32",
"=	c #BB5A1F",
"-	c #C86329",
";	c #C45A23",
">	c #B64921",
",	c #C25C28",
"'	c #A84D21",
")	c #B55331",
"!	c #AE531D",
"~	c #CE7F44",
"{	c #772610",
"]	c #B85119",
"^	c #9D3C12",
"/	c #AD4623",
"(	c #C1622B",
"_	c #BB5829",
":	c #C96532",
"<	c #AD4323",
"[	c #B25F26",
"}	c #AC592F",
"|	c #C26230",
"1	c #A64023",
"2	c #DF7E4E",
"3	c #E18948",
"4	c #D1714C",
"5	c #A84822",
"6	c #CA652A",
"7	c #CA6739",
"8	c #A24215",
"9	c #923111",
"0	c #AE4F33",
"a	c #CD7336",
"b	c #C46035",
"c	c #AE4B2E",
"d	c #D37C3A",
"e	c #B95A34",
"f	c #A33B1C",
"g	c #993511",
"h	c #D97C3D",
"i	c #DB7943",
"j	c #A84222",
"k	c #AE4B1F",
"l	c #DC8547",
"m	c #DD843F",
"n	c #C46D2D",
"o	c #A1421B",
"p	c #AA4F23",
"q	c #B4582E",
"r	c #D28442",
"s	c #C25E2F",
"t	c #D17B34",
"u	c #C56730",
"v	c #D17A38",
"w	c #D57B33",
"x	c #D47643",
"y	c #BD5A2F",
"z	c #B14A1E",
"A	c #DD8448",
"B	c #BD622B",
"C	c #F2A061",
"D	c #9D4613",
"E	c #AA4E23",
"    .+@#$    ",
"  %&*=-;>,'  ",
" )!~{{{{{]^/ ",
" (_{{{{{{{:< ",
"[}{{{{{{{{{|1",
"23{{{{{{{{{45",
"67{{{{{{{{{89",
"0a{{{{{{{{{bc",
"de{{{{{{{{{fg",
" hi{{{{{{{jk ",
" lmn{{{{{opq ",
"  rstuvwxyz  ",
"    ABCDE    "};
