/* XPM */
static char *right_inactive[] = {
/* columns rows colors chars-per-pixel */
"8 24 192 2 ",
"   c #CDA07C",
".  c #DDBCA2",
"X  c #DDBCA2",
"o  c #DAB79A",
"O  c #DDBCA2",
"+  c #CDA07C",
"@  c #A05E28",
"#  c #6D3100",
"$  c #CDA07C",
"%  c #DDBCA2",
"&  c #DDBCA2",
"*  c #DAB79A",
"=  c #DDBCA2",
"-  c #CDA07C",
";  c #A05E28",
":  c #6D3100",
">  c #CDA07C",
",  c #DDBCA2",
"<  c #DDBCA2",
"1  c #DAB79A",
"2  c #DDBCA2",
"3  c #CDA07C",
"4  c #A05E28",
"5  c #6D3100",
"6  c #CDA07C",
"7  c #DDBCA2",
"8  c #DDBCA2",
"9  c #DAB79A",
"0  c #DDBCA2",
"q  c #CDA07C",
"w  c #A05E28",
"e  c #6D3100",
"r  c #CDA07C",
"t  c #DDBCA2",
"y  c #DDBCA2",
"u  c #DAB79A",
"i  c #DDBCA2",
"p  c #CDA07C",
"a  c #A05E28",
"s  c #6D3100",
"d  c #CDA07C",
"f  c #DDBCA2",
"g  c #DDBCA2",
"h  c #DAB79A",
"j  c #DDBCA2",
"k  c #CDA07C",
"l  c #A05E28",
"z  c #6D3100",
"x  c #CDA07C",
"c  c #DDBCA2",
"v  c #DDBCA2",
"b  c #DAB79A",
"n  c #DDBCA2",
"m  c #CDA07C",
"M  c #A05E28",
"N  c #6D3100",
"B  c #CDA07C",
"V  c #DDBCA2",
"C  c #DDBCA2",
"Z  c #DAB79A",
"A  c #DDBCA2",
"S  c #CDA07C",
"D  c #A05E28",
"F  c #6D3100",
"G  c #CDA07C",
"H  c #DDBCA2",
"J  c #DDBCA2",
"K  c #DAB79A",
"L  c #DDBCA2",
"P  c #CDA07C",
"I  c #A05E28",
"U  c #6D3100",
"Y  c #CDA07C",
"T  c #DDBCA2",
"R  c #DDBCA2",
"E  c #DAB79A",
"W  c #DDBCA2",
"Q  c #CDA07C",
"!  c #A05E28",
"~  c #6D3100",
"^  c #CDA07C",
"/  c #DDBCA2",
"(  c #DDBCA2",
")  c #DAB79A",
"_  c #DDBCA2",
"`  c #CDA07C",
"'  c #A05E28",
"]  c #6D3100",
"[  c #CDA07C",
"{  c #DDBCA2",
"}  c #DDBCA2",
"|  c #DAB79A",
" . c #DDBCA2",
".. c #CDA07C",
"X. c #A05E28",
"o. c #6D3100",
"O. c #CDA07C",
"+. c #DDBCA2",
"@. c #DDBCA2",
"#. c #DAB79A",
"$. c #DDBCA2",
"%. c #CDA07C",
"&. c #A05E28",
"*. c #6D3100",
"=. c #CDA07C",
"-. c #DDBCA2",
";. c #DDBCA2",
":. c #DAB79A",
">. c #DDBCA2",
",. c #CDA07C",
"<. c #A05E28",
"1. c #6D3100",
"2. c #CDA07C",
"3. c #DDBCA2",
"4. c #DDBCA2",
"5. c #DAB79A",
"6. c #DDBCA2",
"7. c #CDA07C",
"8. c #A05E28",
"9. c #6D3100",
"0. c #CDA07C",
"q. c #DDBCA2",
"w. c #DDBCA2",
"e. c #DAB79A",
"r. c #DDBCA2",
"t. c #CDA07C",
"y. c #A05E28",
"u. c #6D3100",
"i. c #CDA07C",
"p. c #DDBCA2",
"a. c #DDBCA2",
"s. c #DAB79A",
"d. c #DDBCA2",
"f. c #CDA07C",
"g. c #A05E28",
"h. c #6D3100",
"j. c #CDA07C",
"k. c #DDBCA2",
"l. c #DDBCA2",
"z. c #DAB79A",
"x. c #DDBCA2",
"c. c #CDA07C",
"v. c #A05E28",
"b. c #6D3100",
"n. c #CDA07C",
"m. c #DDBCA2",
"M. c #DDBCA2",
"N. c #DAB79A",
"B. c #DDBCA2",
"V. c #CDA07C",
"C. c #A05E28",
"Z. c #6D3100",
"A. c #CDA07C",
"S. c #DDBCA2",
"D. c #DDBCA2",
"F. c #DAB79A",
"G. c #DDBCA2",
"H. c #CDA07C",
"J. c #A05E28",
"K. c #6D3100",
"L. c #CDA07C",
"P. c #DDBCA2",
"I. c #DDBCA2",
"U. c #DAB79A",
"Y. c #DDBCA2",
"T. c #CDA07C",
"R. c #A05E28",
"E. c #6D3100",
"W. c #CDA07C",
"Q. c #DDBCA2",
"!. c #DDBCA2",
"~. c #DAB79A",
"^. c #DDBCA2",
"/. c #CDA07C",
"(. c #A05E28",
"). c #6D3100",
"_. c #CDA07C",
"`. c #DDBCA2",
"'. c #DDBCA2",
"]. c #DAB79A",
"[. c #DDBCA2",
"{. c #CDA07C",
"}. c #A05E28",
"|. c #6D3100",
" X c #CDA07C",
".X c #DDBCA2",
"XX c #DDBCA2",
"oX c #DAB79A",
"OX c #DDBCA2",
"+X c #CDA07C",
"@X c #A05E28",
"#X c #6D3100",
/* pixels */
"  . X o O + @ # ",
"$ % & * = - ; : ",
"> , < 1 2 3 4 5 ",
"6 7 8 9 0 q w e ",
"r t y u i p a s ",
"d f g h j k l z ",
"x c v b n m M N ",
"B V C Z A S D F ",
"G H J K L P I U ",
"Y T R E W Q ! ~ ",
"^ / ( ) _ ` ' ] ",
"[ { } |  ...X.o.",
"O.+.@.#.$.%.&.*.",
"=.-.;.:.>.,.<.1.",
"2.3.4.5.6.7.8.9.",
"0.q.w.e.r.t.y.u.",
"i.p.a.s.d.f.g.h.",
"j.k.l.z.x.c.v.b.",
"n.m.M.N.B.V.C.Z.",
"A.S.D.F.G.H.J.K.",
"L.P.I.U.Y.T.R.E.",
"W.Q.!.~.^./.(.).",
"_.`.'.].[.{.}.|.",
" X.XXXoXOX+X@X#X"
};
