/* XPM */
static char * shade_pressed_xpm[] = {
"13 13 56 1",
" 	c None",
".	c #8F4411",
"+	c #722E00",
"@	c #8C410D",
"#	c #8A400C",
"$	c #512100",
"%	c #5E2600",
"&	c #964D1A",
"*	c #883E0A",
"=	c #783100",
"-	c #833804",
";	c #7E3300",
">	c #692B00",
",	c #813501",
"'	c #672A00",
")	c #742F00",
"!	c #702E00",
"~	c #954B19",
"{	c #873C09",
"]	c #843905",
"^	c #823602",
"/	c #803400",
"(	c #582400",
"_	c #652900",
":	c #833703",
"<	c #7A3200",
"[	c #A35D2D",
"}	c #893F0B",
"|	c #451C00",
"1	c #853A06",
"2	c #863B07",
"3	c #622800",
"4	c #763000",
"5	c #FFFFFF",
"6	c #9E5625",
"7	c #8E4310",
"8	c #5D2600",
"9	c #4C1F00",
"0	c #944A17",
"a	c #7C3200",
"b	c #904512",
"c	c #502000",
"d	c #934916",
"e	c #A96738",
"f	c #974E1B",
"g	c #642800",
"h	c #9B5321",
"i	c #99501E",
"j	c #984F1D",
"k	c #6F2D00",
"l	c #924815",
"m	c #914713",
"n	c #9A5120",
"o	c #AD6B3D",
"p	c #602700",
"q	c #6D2C00",
"    .+@#$    ",
"  %&*=-;>,'  ",
" )!~{]^@/!(_ ",
" :<[/}<_|123 ",
";4555555555:%",
"&65555555557_",
"12;5555555]89",
"!7^*55555:{:>",
"0a]^b555)@=(c",
" &d:ef5#g%%' ",
" hi*j#hi)8k= ",
"  f^d]l0ma>  ",
"    n^opq    "};
