/* XPM */
static char * shade_prelight_xpm[] = {
"13 13 105 2",
"  	c None",
". 	c #D49564",
"+ 	c #C27C53",
"@ 	c #DB8E67",
"# 	c #DB8E5F",
"$ 	c #B36445",
"% 	c #B36F46",
"& 	c #D89E73",
"* 	c #D18D61",
"= 	c #CA7F52",
"- 	c #D4865A",
"; 	c #D17F55",
"> 	c #C77253",
", 	c #D08159",
"' 	c #BC7553",
") 	c #C67A60",
"! 	c #C07A50",
"~ 	c #D99C6E",
"{ 	c #D18B61",
"] 	c #D2885C",
"^ 	c #CE8458",
"/ 	c #DD8E6C",
"( 	c #D27F63",
"_ 	c #C8784D",
": 	c #B36848",
"< 	c #C07055",
"[ 	c #CF865B",
"} 	c #CA7E5A",
"| 	c #F2A97F",
"1 	c #C9835B",
"2 	c #D18E67",
"3 	c #C18057",
"4 	c #B9725A",
"5 	c #A85A46",
"6 	c #D58859",
"7 	c #D58861",
"8 	c #C06E55",
"9 	c #C38357",
"0 	c #BF7F5E",
"a 	c #613500",
"b 	c #D0865F",
"c 	c #BA6B55",
"d 	c #E69B76",
"e 	c #E8A472",
"f 	c #DB9175",
"g 	c #BC7254",
"h 	c #D6885A",
"i 	c #D68966",
"j 	c #C5835E",
"k 	c #D1895E",
"l 	c #B76D4A",
"m 	c #AB6047",
"n 	c #C07761",
"o 	c #D89364",
"p 	c #CA855E",
"q 	c #D48B61",
"r 	c #D18660",
"s 	c #D28D58",
"t 	c #D18463",
"u 	c #C0745D",
"v 	c #DD9A67",
"w 	c #C97F62",
"x 	c #CE8864",
"y 	c #C68666",
"z 	c #D79572",
"A 	c #C37C56",
"B 	c #DB906B",
"C 	c #CD7C5A",
"D 	c #B8674F",
"E 	c #B06347",
"F 	c #E29A69",
"G 	c #E3976E",
"H 	c #CA895D",
"I 	c #EEB578",
"J 	c #E1A056",
"K 	c #D48F56",
"L 	c #BA724E",
"M 	c #B96E4D",
"N 	c #BC6D54",
"O 	c #C07452",
"P 	c #E4A171",
"Q 	c #E5A06B",
"R 	c #D18E5D",
"S 	c #E29F62",
"T 	c #D8905E",
"U 	c #E9A267",
"V 	c #E7A05D",
"W 	c #C77C50",
"X 	c #B66D4F",
"Y 	c #BD7755",
"Z 	c #C57E5D",
"` 	c #DCA06D",
" .	c #D0835E",
"..	c #DB9962",
"+.	c #D2895F",
"@.	c #DB9865",
"#.	c #DF9961",
"$.	c #DE956E",
"%.	c #CC7F5E",
"&.	c #C37351",
"*.	c #E5A072",
"=.	c #CC865B",
"-.	c #F5B685",
";.	c #B37049",
">.	c #BD7655",
"        . + @ # $         ",
"    % & * = - ; > , '     ",
"  ) ! ~ { ] ^ / ( _ : <   ",
"  [ } | 1 2 3 4 5 6 7 8   ",
"9 0 a a a a a a a a a b c ",
"d e a a a a a a a a a f g ",
"h i j a a a a a a a k l m ",
"n o p q a a a a a r s t u ",
"v w x y z a a a A B C D E ",
"  F G H I J a K L M N O   ",
"  P Q R S T U V W X Y Z   ",
"    `  ...+.@.#.$.%.&.    ",
"        *.=.-.;.>.        "};
