/* XPM */
static char * title_active_xpm[] = {
"128 24 21 1",
" 	c None",
".	c #FFCC66",
"+	c #E6AE56",
"@	c #FFAE4C",
"#	c #FFCC99",
"$	c #E6AE7B",
"%	c #E69843",
"&	c #E68831",
"*	c #FF9933",
"=	c #FFCC33",
"-	c #E6AE31",
";	c #FF9900",
">	c #FFC054",
",	c #FF6600",
"'	c #E6A549",
")	c #FFFF66",
"!	c #E6D37B",
"~	c #FFFF99",
"{	c #777777",
"]	c #826F62",
"^	c #663300",
".............................................+++++++++++++++++++++++++++++++++++++++++++++++++++++..............................",
".......++++++++++++.+++++++++++++++++++++++++++++++........................................................++++++++++++.++++++++",
"@@@@@@@@@@@@@@@@@@@@@@@@@@@@@@@@@@@@@@@..............@@@@@@@@@@@@@@@@@@@@@@@@@@@@@@@@@@@@@@@@@@..............@@@@@@@@@@@@@@@@@@@",
"................................................................................................................................",
"@@@@@@@.........###############........@@@@@@@@@@@@@@@@@@@@@@@@.........$$$$$$$$$$$$###........@@@@@@@@@@@@@@@@@@@@@@@@.........",
".......@@.............................@.................+.+++++%%+++++++++++++++++++++++++++++%++......................@@.......",
"+++++++..@@@.......................@%%+++++++++&&&&&&&&&+++++....@@@......................+%%%+++++++++&&&&*****.........@@@....",
"&&&&&+++++++%++.....@@@@@@@@%%%%%%%+++..==...**........=*****.......@.......@@@@@@@@@@@@@@@.....==+++&&++++++++-&&&**.......@...",
".....@@@@....@@@@@@@...+++++...........==..**..******;*......@@@@....@@@@@@@...................==..**..******;*......@@@@..++%%%",
"*.=====..@@@.......................>>>>...*...**@@@@@,***.=====..@@@.......................>>>>...*...**@@@@@,***.=====..@@@....",
"=.....@@@@@...................>>>>>>>=....*....*;*;***,*=.....@@@@@...................>>>>>>>=....*....*;*;***,*=.....@@@@@.....",
"..@@@@.......>>>>>>>>>>>>>>>>>>>>>>>......*..........**...@@@@.......>''''>>'>'>>>>>>>>>>>>>......*..........**...@@@@.......>>>",
"**.....#>>>>>>##>>>>>>>>>>>>>>>>>.>>>==....**&&&&++++++&&&+++++$''''''$$''''''''''''>''''+'''--++++******......***.....#>>>>>>##",
"+++''''''''''++..............+.+>>''''>---+++++++&&&&&&++++''''''''''+++++++++++++++++++'''''''---+++++++&&&&&&++++>>>>>>>>>>...",
"'''''$+++++++++++++++++++++++++++++.+''''''-+++++++++++''''''$+++++++++++++++++++++++++++++++''''''-+++++++++++''''''$++++++++++",
".....++++++++++%+++++++++++++++++++++++''''''''########................@.......................>>>>>>>>##$$$$$$++++++++++++++++%",
"................................................................................................................................",
">>>>>>>>>>>>>>>>>>>>>>>>>>>>>>>>>>>>>>>>>>>>>>>>>>>>>>>>>>>>>>>>>>>>>>>>>>>>>>>>>>>>>>>>>>>>>>>>>>>>>>>>>>>>>>>>>>>>>>>>>>>>>>>>",
"................................................................................................................................",
"))))))))))))))))))))))))))))))))))))))))))))))))))))))))))))))))))))))))))))))))))))))))))))))))))))))))))))))))))))))))))))))))",
"!!~!!!!!!!!!!!!!!!!~~~~~~~~~!!!!!~!~~~~~~~~~~~~~~~~~~~~~~~~~~~~~~~~~~~~~~~~~~~~~~~~~~~~~~~~~~~~~~~~!!!~!!!!!!!!!!!!!!!!~~~~~~~~~",
"&&&&&&&&&&&&&&&&&&&&&&&&&&&&&&&&&&&&&&*&&&&*&&&***&&&***&*&&************&&&&&*&&&&&&&*&&&&&&&&&&&&&&&&&&&&&&&&&&&&&&&&&&&&&&&&&&",
"{{{{{{{{{{{{{{{{{{{{{{{{{{{{{{{{{{{{{{{]]]]{]]]]]]]]]]]{]]]]]]{]]]{]]]{]]]]]]]]]]]]]]]]]]]]{{{{{{{{{{{{{{{{{{{{{{{{{{{{{{{{{{{{{",
"^^^^^^^^^^^^^^^^^^^^^^^^^^^^^^^^^^^^^^^^^^^^^^^^^^^^^^^^^^^^^^^^^^^^^^^^^^^^^^^^^^^^^^^^^^^^^^^^^^^^^^^^^^^^^^^^^^^^^^^^^^^^^^^^"};
