/* XPM */
static char * top_left_inactive_xpm[] = {
"19 24 241 2",
"  	c None",
". 	c #DDAB82",
"+ 	c #CAAD86",
"@ 	c #AD8861",
"# 	c #A67A55",
"$ 	c #B28763",
"% 	c #A07152",
"& 	c #8B553E",
"* 	c #90553E",
"= 	c #91573F",
"- 	c #8D4F3E",
"; 	c #965740",
"> 	c #86483E",
", 	c #82453E",
"' 	c #8D513E",
") 	c #874E3F",
"! 	c #8F5B47",
"~ 	c #BA8059",
"{ 	c #B07C52",
"] 	c #C29D7D",
"^ 	c #B8926D",
"/ 	c #B98C6B",
"( 	c #C89D76",
"_ 	c #C28D6C",
": 	c #B1785B",
"< 	c #B97C5B",
"[ 	c #C48768",
"} 	c #B57859",
"| 	c #AF7053",
"1 	c #AB6C55",
"2 	c #9D614D",
"3 	c #9D624D",
"4 	c #9F6258",
"5 	c #9D674E",
"6 	c #B47E5E",
"7 	c #C0845D",
"8 	c #C48A5B",
"9 	c #C4997C",
"0 	c #B58D70",
"a 	c #D4A790",
"b 	c #DEAC90",
"c 	c #E3AB8F",
"d 	c #B2745E",
"e 	c #C08261",
"f 	c #B97E5D",
"g 	c #C58866",
"h 	c #BE805F",
"i 	c #7C433E",
"j 	c #713E3E",
"k 	c #A96C58",
"l 	c #A5685F",
"m 	c #B0785D",
"n 	c #CC8D71",
"o 	c #BA8758",
"p 	c #BF8276",
"q 	c #CB9972",
"r 	c #CA9276",
"s 	c #BA8464",
"t 	c #C89568",
"u 	c #AD8155",
"v 	c #C0907A",
"w 	c #C08676",
"x 	c #B47A59",
"y 	c #B67C62",
"z 	c #BA7D64",
"A 	c #B4775E",
"B 	c #743E3E",
"C 	c #8B4D3E",
"D 	c #A7665B",
"E 	c #B17061",
"F 	c #A96851",
"G 	c #B9805B",
"H 	c #C28863",
"I 	c #CE997A",
"J 	c #D09772",
"K 	c #D0A082",
"L 	c #C48868",
"M 	c #C8926B",
"N 	c #C29268",
"O 	c #B27E67",
"P 	c #AB725E",
"Q 	c #BC8161",
"R 	c #B6775B",
"S 	c #B6765D",
"T 	c #BC7C64",
"U 	c #B5745E",
"V 	c #B2725E",
"W 	c #BA776B",
"X 	c #BA7667",
"Y 	c #91533E",
"Z 	c #C48D63",
"` 	c #C2876E",
" .	c #BC885B",
"..	c #CE9772",
"+.	c #BE876D",
"@.	c #D69F7A",
"#.	c #C28A68",
"$.	c #EEBA92",
"%.	c #B88161",
"&.	c #B87E63",
"*.	c #B27659",
"=.	c #B47155",
"-.	c #C68469",
";.	c #C4826B",
">.	c #A36E5B",
",.	c #B47464",
"'.	c #8D5143",
").	c #B0705D",
"!.	c #B17A55",
"~.	c #BA826D",
"{.	c #D89F6E",
"].	c #E1AF84",
"^.	c #CA8B6D",
"/.	c #CF996D",
"(.	c #C88D6B",
"_.	c #D49D74",
":.	c #B27D52",
"<.	c #9F684B",
"[.	c #82493E",
"}.	c #7C423E",
"|.	c #7A403E",
"1.	c #763E3E",
"2.	c #683E3E",
"3.	c #6E3E3E",
"4.	c #7A3F3E",
"5.	c #B67767",
"6.	c #D1A786",
"7.	c #A16952",
"8.	c #BF8672",
"9.	c #CF9974",
"0.	c #E1A97C",
"a.	c #CC966D",
"b.	c #D29B6B",
"c.	c #C58B63",
"d.	c #A97448",
"e.	c #C8905B",
"f.	c #C88C68",
"g.	c #CEA27F",
"h.	c #CFA482",
"i.	c #DCBA9F",
"j.	c #DAB79A",
"k.	c #B6805D",
"l.	c #CB906E",
"m.	c #C58C66",
"n.	c #AF7455",
"o.	c #C08C68",
"p.	c #DBAD7D",
"q.	c #B28047",
"r.	c #F5BF92",
"s.	c #D1A685",
"t.	c #DAB79B",
"u.	c #C69072",
"v.	c #CF9970",
"w.	c #BC8169",
"x.	c #B27C5F",
"y.	c #B8846B",
"z.	c #C49074",
"A.	c #B18052",
"B.	c #DEBDA3",
"C.	c #D9B598",
"D.	c #D6AF91",
"E.	c #DBB79C",
"F.	c #B47C5D",
"G.	c #B87D6C",
"H.	c #CB926D",
"I.	c #AF765D",
"J.	c #B88172",
"K.	c #B17C62",
"L.	c #D29D71",
"M.	c #CB9E7B",
"N.	c #C99A75",
"O.	c #CC9F7C",
"P.	c #D3AC8D",
"Q.	c #DBB99E",
"R.	c #C58664",
"S.	c #CA8B66",
"T.	c #CA8C70",
"U.	c #BC805D",
"V.	c #C68A6D",
"W.	c #B98466",
"X.	c #D5A677",
"Y.	c #C89872",
"Z.	c #CC9F7B",
"`.	c #D3AA8B",
" +	c #BF845B",
".+	c #D6997C",
"++	c #D8A178",
"@+	c #C08869",
"#+	c #C68C6B",
"$+	c #BB8669",
"%+	c #C29168",
"&+	c #D1A887",
"*+	c #D5AE90",
"=+	c #DFBFA7",
"-+	c #C59072",
";+	c #BB8764",
">+	c #7D4E3E",
",+	c #82523E",
"'+	c #CE9971",
")+	c #BF8C6D",
"!+	c #D9B497",
"~+	c #D3AB8C",
"{+	c #CDA27F",
"]+	c #C79872",
"^+	c #C39169",
"/+	c #C89973",
"(+	c #B58067",
"_+	c #B07664",
":+	c #8A533E",
"<+	c #955B40",
"[+	c #E1A684",
"}+	c #B57D5E",
"|+	c #D29B7A",
"1+	c #A36952",
"2+	c #BC8262",
"3+	c #BC806B",
"4+	c #B9805E",
"5+	c #CC9B77",
"6+	c #B47D5B",
"7+	c #BC8459",
"8+	c #B0765B",
"9+	c #E1A57D",
"0+	c #CE8F7C",
"a+	c #C08766",
"b+	c #D9AA86",
"c+	c #A97451",
"d+	c #BC8663",
"e+	c #DEA380",
"f+	c #9D6E55",
"g+	c #CE9974",
"h+	c #DAB69B",
"i+	c #84553E",
"j+	c #78443E",
"k+	c #804E3E",
"l+	c #8A5742",
"m+	c #C5907C",
"n+	c #DBB89D",
"o+	c #F6ECE4",
"p+	c #B4794A",
"q+	c #9F5C27",
"r+	c #6B2F00",
"      . + @ # $ % & * = - ; > , ' ) ! ",
"    ~ { ] ^ / ( _ : < [ } | 1 2 3 4 5 ",
"  6 7 8 9 0 a b c d e f g h i j k l m ",
"n o p q r s t u v w x y z A B C D E F ",
"G H I J K L M N O P Q R S T U V W X Y ",
"Z `  ...+.@.#.$.%.&.*.=.-.;.>.>.,.'.).",
"!.~.{.].^./.(._.:.<.[.}.|.1.2.3.4.5.6.",
"7.8.9.0.a.b.c.d.e.f.g.h.i.j.j.j.j.j.j.",
"k.l.m.n.o.p.q.r.s.s.s.i.i.t.t.t.t.t.t.",
"u.v.w.x.y.z.A.B.C.C.C.C.C.D.E.E.D.D.D.",
"F.G.H.I.J.K.L.M.N.N.N.N.N.O.P.i.Q.Q.i.",
"R.S.T.U.V.W.X.Y.Y.Y.Y.Y.Z.`.D.D.D.D.D.",
" +.+++@+#+$+%+h.h.h.h.&+*+D.=+=+D.D.D.",
"-+;+>+,+'+>.)+!+~+{+]+^+^+/+/+i.i.i.i.",
"(+_+:+<+[+}+|+~+/+/+/+/+/+/+/+/+/+/+/+",
"1+2+3+4+5+6+E.M./+/+/+/+/+/+/+7+/+/+/+",
"8+9+0+a+b+c+E.Q.i.i.i.i.i.i.i.i.i.i.i.",
"d+e+>.>.f+g+h+D.D.D.D.D.D.D.D.D.D.D.D.",
"i+j+k+l+m+E.n+i.i.i.i.i.i.i.i.i.i.i.i.",
"o+o+o+o+o+o+o+o+o+o+o+o+o+o+o+o+o+o+o+",
"i.i.i.i.i.i.i.i.i.i.i.i.i.i.i.i.i.i.i.",
"p+p+p+p+p+p+p+p+p+p+p+p+p+p+p+p+p+p+p+",
"q+q+q+q+q+q+q+q+q+q+q+q+q+q+q+q+q+q+q+",
"r+r+r+r+r+r+r+r+r+r+r+r+r+r+r+r+r+r+r+"};
