/* XPM */
static char * top_right_active_xpm[] = {
"19 24 219 2",
"  	c None",
". 	c #6B270C",
"+ 	c #611502",
"@ 	c #691900",
"# 	c #5A0A00",
"$ 	c #5F0D00",
"% 	c #742103",
"& 	c #691700",
"* 	c #6E2102",
"= 	c #6C1E00",
"- 	c #641C00",
"; 	c #81431A",
"> 	c #9A6131",
", 	c #8A4F1F",
"' 	c #93622E",
") 	c #B9935F",
"! 	c #D2905A",
"~ 	c #7E3615",
"{ 	c #803023",
"] 	c #7E3014",
"^ 	c #7E2E14",
"/ 	c #8D3819",
"( 	c #95421C",
"_ 	c #9D4D24",
": 	c #B16138",
"< 	c #A25226",
"[ 	c #9C4F24",
"} 	c #AE693D",
"| 	c #B77D4A",
"1 	c #A2673B",
"2 	c #A16F3E",
"3 	c #AE7E54",
"4 	c #97521A",
"5 	c #A45724",
"6 	c #974D29",
"7 	c #88382C",
"8 	c #8D3D23",
"9 	c #430000",
"0 	c #520700",
"a 	c #A9572C",
"b 	c #B36235",
"c 	c #A2572B",
"d 	c #AC5A2E",
"e 	c #9A482B",
"f 	c #DA906B",
"g 	c #D3926C",
"h 	c #C68B6C",
"i 	c #9D6942",
"j 	c #B17952",
"k 	c #B16426",
"l 	c #AC5D29",
"m 	c #9D542B",
"n 	c #9C4733",
"o 	c #8B3527",
"p 	c #661400",
"q 	c #4A0000",
"r 	c #9C4B2B",
"s 	c #A45433",
"t 	c #9F5230",
"u 	c #AE6140",
"v 	c #AC6C4F",
"w 	c #9C5427",
"x 	c #B67338",
"y 	c #9D5736",
"z 	c #B96F4A",
"A 	c #BE7947",
"B 	c #AA5A4A",
"C 	c #A46123",
"D 	c #BC6943",
"E 	c #A44A36",
"F 	c #A44B3B",
"G 	c #9A452B",
"H 	c #9D472B",
"I 	c #A75233",
"J 	c #9F4A29",
"K 	c #9F4B27",
"L 	c #A7592E",
"M 	c #90452B",
"N 	c #9A5536",
"O 	c #AF6F38",
"P 	c #B35F33",
"Q 	c #C17645",
"R 	c #BC7B4B",
"S 	c #AF6231",
"T 	c #974229",
"U 	c #691907",
"V 	c #864026",
"W 	c #B15A3B",
"X 	c #B45C39",
"Y 	c #9C431F",
"Z 	c #9A4A24",
"` 	c #E9A46F",
" .	c #C97952",
"..	c #A9613E",
"+.	c #A76227",
"@.	c #B16931",
"#.	c #F7B554",
"$.	c #9F4B36",
"%.	c #4F0200",
"&.	c #400000",
"*.	c #380000",
"=.	c #500300",
"-.	c #520500",
";.	c #5A0F00",
">.	c #98571A",
",.	c #C67E47",
"'.	c #B6693B",
").	c #C0783E",
"!.	c #B9663E",
"~.	c #D7955D",
"{.	c #CB8040",
"].	c #A45A3E",
"^.	c #95481E",
"/.	c #FFA439",
"(.	c #FFCC66",
"_.	c #FFC83A",
":.	c #FFCC42",
"<.	c #FFC638",
"[.	c #FFC661",
"}.	c #B76C27",
"|.	c #8D470D",
"1.	c #B36631",
"2.	c #C37B3B",
"3.	c #BC743E",
"4.	c #D78D52",
"5.	c #AA5F45",
"6.	c #83391A",
"7.	c #FFB754",
"8.	c #F2AA6F",
"9.	c #9A570C",
"0.	c #D09354",
"a.	c #B36735",
"b.	c #BB6F3E",
"c.	c #FFB34D",
"d.	c #FFBD59",
"e.	c #F6D272",
"f.	c #FFC55C",
"g.	c #B16C47",
"h.	c #9A522C",
"i.	c #A75939",
"j.	c #BE7843",
"k.	c #B46C45",
"l.	c #EDA84C",
"m.	c #EDB75B",
"n.	c #EDB051",
"o.	c #EDB060",
"p.	c #EDAD4C",
"q.	c #C37D43",
"r.	c #985230",
"s.	c #A15945",
"t.	c #A1543D",
"u.	c #9C5229",
"v.	c #E9AA4D",
"w.	c #E9AB4E",
"x.	c #E6AD72",
"y.	c #E6AD55",
"z.	c #C88A4B",
"A.	c #A25C35",
"B.	c #B4643E",
"C.	c #A75729",
"D.	c #B96742",
"E.	c #B96635",
"F.	c #FFC75F",
"G.	c #FFC65E",
"H.	c #FFC65D",
"I.	c #FFCC81",
"J.	c #F8BC56",
"K.	c #F9BD56",
"L.	c #F8BD56",
"M.	c #F3BA58",
"N.	c #EEB85A",
"O.	c #EEB85B",
"P.	c #AF6E38",
"Q.	c #A55F39",
"R.	c #B4673B",
"S.	c #AC6239",
"T.	c #CB834D",
"U.	c #AA5C26",
"V.	c #E6AE56",
"W.	c #E6A549",
"X.	c #EAAA4C",
"Y.	c #FCC159",
"Z.	c #AA673E",
"`.	c #5A1A00",
" +	c #541500",
".+	c #A56133",
"++	c #B36C45",
"@+	c #EAB258",
"#+	c #FDC761",
"$+	c #C37B50",
"%+	c #D78A5C",
"&+	c #732703",
"*+	c #974A33",
"=+	c #E69843",
"-+	c #EEB558",
";+	c #A7573B",
">+	c #A75A30",
",+	c #85391A",
"'+	c #FFC760",
")+	c #8D4719",
"!+	c #CD8F5F",
"~+	c #AC6135",
"{+	c #BE6B52",
"]+	c #D78854",
"^+	c #974A27",
"/+	c #FFC054",
"(+	c #FEC556",
"_+	c #7E401E",
":+	c #D38657",
"<+	c #A75F31",
"[+	c #FDD867",
"}+	c #B97453",
"|+	c #5C1E00",
"1+	c #FFFF66",
"2+	c #E6D37B",
"3+	c #FFFF99",
"4+	c #E68831",
"5+	c #777777",
"6+	c #663300",
". + @ # $ % & * = - ; > , ' ) !       ",
"~ { ] ^ / ( _ : < [ } | 1 2 3 4 5     ",
"6 7 8 9 0 a b c d e f g h i j k l m   ",
"/ n o p q r s t [ u v w x y z A B C D ",
"= E F G H I J K L M N O x P ) Q R S c ",
"T U n V V W X Y Z s c ` b  ...A +.u @.",
"#.$.%.&.*.q =.-.;.~ >.,.'.).!.~.{.].^.",
"/.(._.:._._.<.[.[.'.}.|.1.2.3.4.A 5.6.",
":.(.[.[.[.[.7.7.7.7.7.8.9.0.} ^.a.b.c ",
"c.c.d.d.d.d.(.e.[.f.f.f.>.g.y h.i.j.k.",
"l.l.m.n.n.n.n.o.l.p.p.p.q.r.s.6 b.t.u.",
"v.w.w.v.v.x.y.y.y.y.y.y.z.A.B.C.D.E.P ",
"F.G.H.I.I.J.K.L.M.N.O.O.P.Q.R.S.T. .U.",
"(.(.(.(.V.V.W.W.W.X.Y.f.Z.V j.`. +.+++",
"V.V.V.V.V.V.V.V.V.V.@+#+$+m %+&+- *+y ",
"V.V.V.=+V.V.V.V.V.V.V.-+f.w R c ;+>+,+",
"(.(.(.(.(.(.(.(.(.(.(.(.'+)+!+~+{+]+^+",
"/+/+/+/+/+/+/+/+/+/+/+/+(+A _+V V :+<+",
"(.(.(.(.(.(.(.(.(.(.(.(.(.[+}+^+^+^+|+",
"1+1+1+1+1+1+1+1+1+1+1+1+1+1+1+1+1+1+1+",
"2+2+2+2+2+2+2+2+2+2+2+2+2+2+2+2+3+2+2+",
"4+4+4+4+4+4+4+4+4+4+4+4+4+4+4+4+4+4+4+",
"5+5+5+5+5+5+5+5+5+5+5+5+5+5+5+5+5+5+5+",
"6+6+6+6+6+6+6+6+6+6+6+6+6+6+6+6+6+6+6+"};
