/* XPM */
static char * top_right_inactive_xpm[] = {
"19 24 241 2",
"  	c None",
". 	c #8F5B47",
"+ 	c #874E3F",
"@ 	c #8D513E",
"# 	c #82453E",
"$ 	c #86483E",
"% 	c #965740",
"& 	c #8D4F3E",
"* 	c #91573F",
"= 	c #90553E",
"- 	c #8B553E",
"; 	c #A07152",
"> 	c #B28763",
", 	c #A67A55",
"' 	c #AD8861",
") 	c #CAAD86",
"! 	c #DDAB82",
"~ 	c #9D674E",
"{ 	c #9F6258",
"] 	c #9D624D",
"^ 	c #9D614D",
"/ 	c #AB6C55",
"( 	c #AF7053",
"_ 	c #B57859",
": 	c #C48768",
"< 	c #B97C5B",
"[ 	c #B1785B",
"} 	c #C28D6C",
"| 	c #C89D76",
"1 	c #B98C6B",
"2 	c #B8926D",
"3 	c #C29D7D",
"4 	c #B07C52",
"5 	c #BA8059",
"6 	c #B0785D",
"7 	c #A5685F",
"8 	c #A96C58",
"9 	c #713E3E",
"0 	c #7C433E",
"a 	c #BE805F",
"b 	c #C58866",
"c 	c #B97E5D",
"d 	c #C08261",
"e 	c #B2745E",
"f 	c #E3AB8F",
"g 	c #DEAC90",
"h 	c #D4A790",
"i 	c #B58D70",
"j 	c #C4997C",
"k 	c #C48A5B",
"l 	c #C0845D",
"m 	c #B47E5E",
"n 	c #A96851",
"o 	c #B17061",
"p 	c #A7665B",
"q 	c #8B4D3E",
"r 	c #743E3E",
"s 	c #B4775E",
"t 	c #BA7D64",
"u 	c #B67C62",
"v 	c #B47A59",
"w 	c #C08676",
"x 	c #C0907A",
"y 	c #AD8155",
"z 	c #C89568",
"A 	c #BA8464",
"B 	c #CA9276",
"C 	c #CB9972",
"D 	c #BF8276",
"E 	c #BA8758",
"F 	c #CC8D71",
"G 	c #91533E",
"H 	c #BA7667",
"I 	c #BA776B",
"J 	c #B2725E",
"K 	c #B5745E",
"L 	c #BC7C64",
"M 	c #B6765D",
"N 	c #B6775B",
"O 	c #BC8161",
"P 	c #AB725E",
"Q 	c #B27E67",
"R 	c #C29268",
"S 	c #C8926B",
"T 	c #C48868",
"U 	c #D0A082",
"V 	c #D09772",
"W 	c #CE997A",
"X 	c #C28863",
"Y 	c #B9805B",
"Z 	c #B0705D",
"` 	c #8D5143",
" .	c #B47464",
"..	c #A36E5B",
"+.	c #C4826B",
"@.	c #C68469",
"#.	c #B47155",
"$.	c #B27659",
"%.	c #B87E63",
"&.	c #B88161",
"*.	c #EEBA92",
"=.	c #C28A68",
"-.	c #D69F7A",
";.	c #BE876D",
">.	c #CE9772",
",.	c #BC885B",
"'.	c #C2876E",
").	c #C48D63",
"!.	c #D1A786",
"~.	c #B67767",
"{.	c #7A3F3E",
"].	c #6E3E3E",
"^.	c #683E3E",
"/.	c #763E3E",
"(.	c #7A403E",
"_.	c #7C423E",
":.	c #82493E",
"<.	c #9F684B",
"[.	c #B27D52",
"}.	c #D49D74",
"|.	c #C88D6B",
"1.	c #CF996D",
"2.	c #CA8B6D",
"3.	c #E1AF84",
"4.	c #D89F6E",
"5.	c #BA826D",
"6.	c #B17A55",
"7.	c #DAB79A",
"8.	c #DCBA9F",
"9.	c #CFA482",
"0.	c #CEA27F",
"a.	c #C88C68",
"b.	c #C8905B",
"c.	c #A97448",
"d.	c #C58B63",
"e.	c #D29B6B",
"f.	c #CC966D",
"g.	c #E1A97C",
"h.	c #CF9974",
"i.	c #BF8672",
"j.	c #A16952",
"k.	c #DAB79B",
"l.	c #D1A685",
"m.	c #F5BF92",
"n.	c #B28047",
"o.	c #DBAD7D",
"p.	c #C08C68",
"q.	c #AF7455",
"r.	c #C58C66",
"s.	c #CB906E",
"t.	c #B6805D",
"u.	c #D6AF91",
"v.	c #DBB79C",
"w.	c #D9B598",
"x.	c #DEBDA3",
"y.	c #B18052",
"z.	c #C49074",
"A.	c #B8846B",
"B.	c #B27C5F",
"C.	c #BC8169",
"D.	c #CF9970",
"E.	c #C69072",
"F.	c #DBB99E",
"G.	c #D3AC8D",
"H.	c #CC9F7C",
"I.	c #C99A75",
"J.	c #CB9E7B",
"K.	c #D29D71",
"L.	c #B17C62",
"M.	c #B88172",
"N.	c #AF765D",
"O.	c #CB926D",
"P.	c #B87D6C",
"Q.	c #B47C5D",
"R.	c #D3AA8B",
"S.	c #CC9F7B",
"T.	c #C89872",
"U.	c #D5A677",
"V.	c #B98466",
"W.	c #C68A6D",
"X.	c #BC805D",
"Y.	c #CA8C70",
"Z.	c #CA8B66",
"`.	c #C58664",
" +	c #DFBFA7",
".+	c #D5AE90",
"++	c #D1A887",
"@+	c #C29168",
"#+	c #BB8669",
"$+	c #C68C6B",
"%+	c #C08869",
"&+	c #D8A178",
"*+	c #D6997C",
"=+	c #BF845B",
"-+	c #C89973",
";+	c #C39169",
">+	c #C79872",
",+	c #CDA27F",
"'+	c #D3AB8C",
")+	c #D9B497",
"!+	c #BF8C6D",
"~+	c #CE9971",
"{+	c #82523E",
"]+	c #7D4E3E",
"^+	c #BB8764",
"/+	c #C59072",
"(+	c #D29B7A",
"_+	c #B57D5E",
":+	c #E1A684",
"<+	c #955B40",
"[+	c #8A533E",
"}+	c #B07664",
"|+	c #B58067",
"1+	c #BC8459",
"2+	c #B47D5B",
"3+	c #CC9B77",
"4+	c #B9805E",
"5+	c #BC806B",
"6+	c #BC8262",
"7+	c #A36952",
"8+	c #A97451",
"9+	c #D9AA86",
"0+	c #C08766",
"a+	c #CE8F7C",
"b+	c #E1A57D",
"c+	c #B0765B",
"d+	c #DAB69B",
"e+	c #CE9974",
"f+	c #9D6E55",
"g+	c #DEA380",
"h+	c #BC8663",
"i+	c #DBB89D",
"j+	c #C5907C",
"k+	c #8A5742",
"l+	c #804E3E",
"m+	c #78443E",
"n+	c #84553E",
"o+	c #F6ECE4",
"p+	c #B4794A",
"q+	c #9F5C27",
"r+	c #6B2F00",
". + @ # $ % & * = - ; > , ' ) !       ",
"~ { ] ^ / ( _ : < [ } | 1 2 3 4 5     ",
"6 7 8 9 0 a b c d e f g h i j k l m   ",
"n o p q r s t u v w x y z A B C D E F ",
"G H I J K L M N O P Q R S T U V W X Y ",
"Z `  .....+.@.#.$.%.&.*.=.-.;.>.,.'.).",
"!.~.{.].^./.(._.:.<.[.}.|.1.2.3.4.5.6.",
"7.7.7.7.7.7.8.9.0.a.b.c.d.e.f.g.h.i.j.",
"k.k.k.k.k.k.8.8.l.l.l.m.n.o.p.q.r.s.t.",
"u.u.u.v.v.u.w.w.w.w.w.x.y.z.A.B.C.D.E.",
"8.F.F.8.G.H.I.I.I.I.I.J.K.L.M.N.O.P.Q.",
"u.u.u.u.u.R.S.T.T.T.T.T.U.V.W.X.Y.Z.`.",
"u.u.u. + +u..+++9.9.9.9.@+#+$+%+&+*+=+",
"8.8.8.8.-+-+;+;+>+,+'+)+!+..~+{+]+^+/+",
"-+-+-+-+-+-+-+-+-+-+-+'+(+_+:+<+[+}+|+",
"-+-+-+1+-+-+-+-+-+-+-+J.v.2+3+4+5+6+7+",
"8.8.8.8.8.8.8.8.8.8.8.F.v.8+9+0+a+b+c+",
"u.u.u.u.u.u.u.u.u.u.u.u.d+e+f+....g+h+",
"8.8.8.8.8.8.8.8.8.8.8.8.i+v.j+k+l+m+n+",
"o+o+o+o+o+o+o+o+o+o+o+o+o+o+o+o+o+o+o+",
"8.8.8.8.8.8.8.8.8.8.8.8.8.8.8.8.8.8.8.",
"p+p+p+p+p+p+p+p+p+p+p+p+p+p+p+p+p+p+p+",
"q+q+q+q+q+q+q+q+q+q+q+q+q+q+q+q+q+q+q+",
"r+r+r+r+r+r+r+r+r+r+r+r+r+r+r+r+r+r+r+"};
