/* XPM */
static char * top_left_active_xpm[] = {
"19 24 219 2",
"  	c None",
". 	c #D2905A",
"+ 	c #B9935F",
"@ 	c #93622E",
"# 	c #8A4F1F",
"$ 	c #9A6131",
"% 	c #81431A",
"& 	c #641C00",
"* 	c #6C1E00",
"= 	c #6E2102",
"- 	c #691700",
"; 	c #742103",
"> 	c #5F0D00",
", 	c #5A0A00",
"' 	c #691900",
") 	c #611502",
"! 	c #6B270C",
"~ 	c #A45724",
"{ 	c #97521A",
"] 	c #AE7E54",
"^ 	c #A16F3E",
"/ 	c #A2673B",
"( 	c #B77D4A",
"_ 	c #AE693D",
": 	c #9C4F24",
"< 	c #A25226",
"[ 	c #B16138",
"} 	c #9D4D24",
"| 	c #95421C",
"1 	c #8D3819",
"2 	c #7E2E14",
"3 	c #7E3014",
"4 	c #803023",
"5 	c #7E3615",
"6 	c #9D542B",
"7 	c #AC5D29",
"8 	c #B16426",
"9 	c #B17952",
"0 	c #9D6942",
"a 	c #C68B6C",
"b 	c #D3926C",
"c 	c #DA906B",
"d 	c #9A482B",
"e 	c #AC5A2E",
"f 	c #A2572B",
"g 	c #B36235",
"h 	c #A9572C",
"i 	c #520700",
"j 	c #430000",
"k 	c #8D3D23",
"l 	c #88382C",
"m 	c #974D29",
"n 	c #BC6943",
"o 	c #A46123",
"p 	c #AA5A4A",
"q 	c #BE7947",
"r 	c #B96F4A",
"s 	c #9D5736",
"t 	c #B67338",
"u 	c #9C5427",
"v 	c #AC6C4F",
"w 	c #AE6140",
"x 	c #9F5230",
"y 	c #A45433",
"z 	c #9C4B2B",
"A 	c #4A0000",
"B 	c #661400",
"C 	c #8B3527",
"D 	c #9C4733",
"E 	c #AF6231",
"F 	c #BC7B4B",
"G 	c #C17645",
"H 	c #B35F33",
"I 	c #AF6F38",
"J 	c #9A5536",
"K 	c #90452B",
"L 	c #A7592E",
"M 	c #9F4B27",
"N 	c #9F4A29",
"O 	c #A75233",
"P 	c #9D472B",
"Q 	c #9A452B",
"R 	c #A44B3B",
"S 	c #A44A36",
"T 	c #B16931",
"U 	c #A76227",
"V 	c #A9613E",
"W 	c #C97952",
"X 	c #E9A46F",
"Y 	c #9A4A24",
"Z 	c #9C431F",
"` 	c #B45C39",
" .	c #B15A3B",
"..	c #864026",
"+.	c #691907",
"@.	c #974229",
"#.	c #95481E",
"$.	c #A45A3E",
"%.	c #CB8040",
"&.	c #D7955D",
"*.	c #B9663E",
"=.	c #C0783E",
"-.	c #B6693B",
";.	c #C67E47",
">.	c #98571A",
",.	c #5A0F00",
"'.	c #520500",
").	c #500300",
"!.	c #380000",
"~.	c #400000",
"{.	c #4F0200",
"].	c #9F4B36",
"^.	c #F7B554",
"/.	c #83391A",
"(.	c #AA5F45",
"_.	c #D78D52",
":.	c #BC743E",
"<.	c #C37B3B",
"[.	c #B36631",
"}.	c #8D470D",
"|.	c #B76C27",
"1.	c #FFC661",
"2.	c #FFC638",
"3.	c #FFC83A",
"4.	c #FFCC42",
"5.	c #FFCC66",
"6.	c #FFA439",
"7.	c #BB6F3E",
"8.	c #B36735",
"9.	c #D09354",
"0.	c #9A570C",
"a.	c #F2AA6F",
"b.	c #FFB754",
"c.	c #B46C45",
"d.	c #BE7843",
"e.	c #A75939",
"f.	c #9A522C",
"g.	c #B16C47",
"h.	c #FFC55C",
"i.	c #F6D272",
"j.	c #FFBD59",
"k.	c #FFB34D",
"l.	c #9C5229",
"m.	c #A1543D",
"n.	c #A15945",
"o.	c #985230",
"p.	c #C37D43",
"q.	c #EDAD4C",
"r.	c #EDA84C",
"s.	c #EDB060",
"t.	c #EDB051",
"u.	c #EDB75B",
"v.	c #B96635",
"w.	c #B96742",
"x.	c #A75729",
"y.	c #B4643E",
"z.	c #A25C35",
"A.	c #C88A4B",
"B.	c #E6AD55",
"C.	c #E6AD72",
"D.	c #E9AA4D",
"E.	c #E9AB4E",
"F.	c #AA5C26",
"G.	c #CB834D",
"H.	c #AC6239",
"I.	c #B4673B",
"J.	c #A55F39",
"K.	c #AF6E38",
"L.	c #EEB85B",
"M.	c #EEB85A",
"N.	c #F3BA58",
"O.	c #F8BD56",
"P.	c #F9BD56",
"Q.	c #F8BC56",
"R.	c #FFCC81",
"S.	c #FFC65D",
"T.	c #FFC65E",
"U.	c #FFC75F",
"V.	c #B36C45",
"W.	c #A56133",
"X.	c #541500",
"Y.	c #5A1A00",
"Z.	c #AA673E",
"`.	c #FCC159",
" +	c #EAAA4C",
".+	c #E6A549",
"++	c #E6AE56",
"@+	c #974A33",
"#+	c #732703",
"$+	c #D78A5C",
"%+	c #C37B50",
"&+	c #FDC761",
"*+	c #EAB258",
"=+	c #85391A",
"-+	c #A75A30",
";+	c #A7573B",
">+	c #EEB558",
",+	c #E69843",
"'+	c #974A27",
")+	c #D78854",
"!+	c #BE6B52",
"~+	c #AC6135",
"{+	c #CD8F5F",
"]+	c #8D4719",
"^+	c #FFC760",
"/+	c #A75F31",
"(+	c #D38657",
"_+	c #7E401E",
":+	c #FEC556",
"<+	c #FFC054",
"[+	c #5C1E00",
"}+	c #B97453",
"|+	c #FDD867",
"1+	c #FFFF66",
"2+	c #E6D37B",
"3+	c #FFFF99",
"4+	c #E68831",
"5+	c #777777",
"6+	c #663300",
"      . + @ # $ % & * = - ; > , ' ) ! ",
"    ~ { ] ^ / ( _ : < [ } | 1 2 3 4 5 ",
"  6 7 8 9 0 a b c d e f g h i j k l m ",
"n o p q r s t u v w : x y z A B C D 1 ",
"f E F G + H t I J K L M N O P Q R S * ",
"T w U q V W g X f y Y Z `  .....D +.@.",
"#.$.%.&.*.=.-.;.>.5 ,.'.).A !.~.{.].^.",
"/.(.q _.:.<.[.}.|.-.1.1.2.3.3.4.3.5.6.",
"f 7.8.#._ 9.0.a.b.b.b.b.b.1.1.1.1.5.4.",
"c.d.e.f.s g.>.h.h.h.1.i.5.j.j.j.j.k.k.",
"l.m.7.m n.o.p.q.q.q.r.s.t.t.t.t.u.r.r.",
"H v.w.x.y.z.A.B.B.B.B.B.B.C.D.D.E.E.D.",
"F.W G.H.I.J.K.L.L.M.N.O.P.Q.R.R.S.T.U.",
"V.W.X.Y.d...Z.h.`. +.+.+.+++++5.5.5.5.",
"s @+& #+$+6 %+&+*+++++++++++++++++++++",
"=+-+;+f F u h.>+++++++++++++++,+++++++",
"'+)+!+~+{+]+^+5.5.5.5.5.5.5.5.5.5.5.5.",
"/+(+...._+q :+<+<+<+<+<+<+<+<+<+<+<+<+",
"[+'+'+'+}+|+5.5.5.5.5.5.5.5.5.5.5.5.5.",
"1+1+1+1+1+1+1+1+1+1+1+1+1+1+1+1+1+1+1+",
"2+2+3+2+2+2+2+2+2+2+2+2+2+2+2+2+2+2+2+",
"4+4+4+4+4+4+4+4+4+4+4+4+4+4+4+4+4+4+4+",
"5+5+5+5+5+5+5+5+5+5+5+5+5+5+5+5+5+5+5+",
"6+6+6+6+6+6+6+6+6+6+6+6+6+6+6+6+6+6+6+"};
