/* XPM */
static char * stock_commandline_history_xpm[] = {
"24 24 115 2",
"  	c None",
". 	c #000000",
"+ 	c #5C3A13",
"@ 	c #6E3F0B",
"# 	c #74410A",
"$ 	c #764209",
"% 	c #75420B",
"& 	c #72400B",
"* 	c #73400B",
"= 	c #713F0C",
"- 	c #75400A",
"; 	c #81460C",
"> 	c #844F0D",
", 	c #824A0D",
"' 	c #834B0E",
") 	c #894D0E",
"! 	c #8D4D0D",
"~ 	c #884A0D",
"{ 	c #7D460D",
"] 	c #81490C",
"^ 	c #76430C",
"/ 	c #6D3F0B",
"( 	c #713F0A",
"_ 	c #7E480C",
": 	c #79450C",
"< 	c #79450B",
"[ 	c #74410C",
"} 	c #77440B",
"| 	c #7A480D",
"1 	c #844E0E",
"2 	c #824C0E",
"3 	c #834C0C",
"4 	c #8B500E",
"5 	c #8B500C",
"6 	c #92530E",
"7 	c #824D15",
"8 	c #413E3B",
"9 	c #87500D",
"0 	c #874D0D",
"a 	c #7A460C",
"b 	c #6F400A",
"c 	c #6E3F09",
"d 	c #78440A",
"e 	c #814A0A",
"f 	c #7E460B",
"g 	c #7A460D",
"h 	c #91520F",
"i 	c #99540F",
"j 	c #8F500D",
"k 	c #8F4E0E",
"l 	c #96560F",
"m 	c #854E0D",
"n 	c #1D1D1D",
"o 	c #4C4339",
"p 	c #7A460A",
"q 	c #7B490C",
"r 	c #78440B",
"s 	c #864C0D",
"t 	c #8A4F0D",
"u 	c #77430A",
"v 	c #713E09",
"w 	c #703C0A",
"x 	c #6C3C0B",
"y 	c #61380A",
"z 	c #4C4238",
"A 	c #724109",
"B 	c #6A3C0A",
"C 	c #62390B",
"D 	c #693B0A",
"E 	c #613609",
"F 	c #573009",
"G 	c #5C3208",
"H 	c #673709",
"I 	c #683A08",
"J 	c #66350A",
"K 	c #5E3509",
"L 	c #4A4238",
"M 	c #65390A",
"N 	c #6A3C0B",
"O 	c #76430A",
"P 	c #673B0A",
"Q 	c #633B0A",
"R 	c #73420A",
"S 	c #6F3D0A",
"T 	c #723F0A",
"U 	c #7A4714",
"V 	c #4B4238",
"W 	c #6B3B0A",
"X 	c #73410C",
"Y 	c #6F400C",
"Z 	c #70410B",
"` 	c #6B400B",
" .	c #623808",
"..	c #5B3107",
"+.	c #4D4338",
"@.	c #6F4209",
"#.	c #6D3D0C",
"$.	c #62370A",
"%.	c #6D3E0A",
"&.	c #77460C",
"*.	c #7F4C0D",
"=.	c #7D490D",
"-.	c #6F420B",
";.	c #643A0A",
">.	c #4F4439",
",.	c #643C09",
"'.	c #643C0B",
").	c #72400D",
"!.	c #4B4138",
"~.	c #703B09",
"{.	c #703E0B",
"].	c #5F3908",
"^.	c #4C4137",
"/.	c #634119",
"(.	c #242424",
"                                                ",
"                                                ",
"                                                ",
"                                                ",
". . . . . . . . . . . . . . . . . . . . . . . . ",
". + @ # $ % & * % % = - # ; > , ' ) ! ~ { ] ^ . ",
". / ( ^ { _ : < ] _ [ ] } | 1 2 3 4 ! 5 4 6 7 . ",
". 8 9 0 a b c d e ] f g } _ h i j ~ k l 5 m n   ",
"  . o p a : < a q a r } s t ] u v w w x y n     ",
"    . z @ A ^ } } b B C D E F G H I J K n       ",
"      . L M N & O & P Q / % R = S T U n         ",
"        . V W X r ^ & Y Z `  ...G D .           ",
"          . +.& X & A @.% #.E $.%.. .           ",
"            . +.& b @ &.*.=.-.;.. .             ",
"              . >.O c ,.C '.).. .               ",
"                . !.~.{.;.].. .                 ",
"                  . ^.B /.. .                   ",
"                    . (.. .                     ",
"                        .                       ",
"                                                ",
"                                                ",
"                                                ",
"                                                ",
"                                                "};
