<?xml version="1.0" encoding="UTF-8" standalone="no"?>
<!-- Created with Inkscape (http://www.inkscape.org/) -->

<svg
   xmlns:dc="http://purl.org/dc/elements/1.1/"
   xmlns:cc="http://creativecommons.org/ns#"
   xmlns:rdf="http://www.w3.org/1999/02/22-rdf-syntax-ns#"
   xmlns:svg="http://www.w3.org/2000/svg"
   xmlns="http://www.w3.org/2000/svg"
   xmlns:xlink="http://www.w3.org/1999/xlink"
   xmlns:sodipodi="http://sodipodi.sourceforge.net/DTD/sodipodi-0.dtd"
   xmlns:inkscape="http://www.inkscape.org/namespaces/inkscape"
   width="16"
   height="16"
   id="svg7217"
   sodipodi:version="0.32"
   inkscape:version="0.48.1 r9760"
   sodipodi:docname="folder-symbolic.svg"
   inkscape:output_extension="org.inkscape.output.svg.inkscape"
   version="1.1"
   inkscape:export-filename="folder-symbolic.png"
   inkscape:export-xdpi="90"
   inkscape:export-ydpi="90">
  <defs
     id="defs7219">
    <linearGradient
       id="linearGradient10176"
       gradientUnits="userSpaceOnUse"
       x1="71.999496"
       y1="14.2578"
       x2="71.999496"
       y2="19.9583"
       gradientTransform="matrix(1.0033404,0,0,1,-8.2374684,8)">
      <stop
         offset="0.00445589"
         style="stop-color:#feebd6;stop-opacity:0;"
         id="stop10178" />
      <stop
         id="stop10180"
         style="stop-color:#f5f5f5;stop-opacity:0.53"
         offset="0.46138024" />
      <stop
         offset="1"
         style="stop-color:#f5f5f5;stop-opacity:0"
         id="stop10182" />
    </linearGradient>
    <linearGradient
       inkscape:collect="always"
       xlink:href="#linearGradient10176"
       id="linearGradient9649"
       gradientUnits="userSpaceOnUse"
       gradientTransform="matrix(0.4550303,0,0,0.942809,-5.4003734,-18.279212)"
       x1="7.2379346"
       y1="36.005047"
       x2="132.86028"
       y2="35.857735" />
    <radialGradient
       inkscape:collect="always"
       xlink:href="#linearGradient5060"
       id="radialGradient2099"
       gradientUnits="userSpaceOnUse"
       gradientTransform="matrix(-2.774389,0,0,1.969706,112.7623,-872.8854)"
       cx="605.71429"
       cy="486.64789"
       fx="605.71429"
       fy="486.64789"
       r="117.14286" />
    <linearGradient
       inkscape:collect="always"
       id="linearGradient5060">
      <stop
         style="stop-color:black;stop-opacity:1;"
         offset="0"
         id="stop5062" />
      <stop
         style="stop-color:black;stop-opacity:0;"
         offset="1"
         id="stop5064" />
    </linearGradient>
    <radialGradient
       inkscape:collect="always"
       xlink:href="#linearGradient5060"
       id="radialGradient2097"
       gradientUnits="userSpaceOnUse"
       gradientTransform="matrix(2.774389,0,0,1.969706,-1891.633,-872.8854)"
       cx="605.71429"
       cy="486.64789"
       fx="605.71429"
       fy="486.64789"
       r="117.14286" />
    <linearGradient
       id="linearGradient5048">
      <stop
         style="stop-color:black;stop-opacity:0;"
         offset="0"
         id="stop5050" />
      <stop
         id="stop5056"
         offset="0.5"
         style="stop-color:black;stop-opacity:1;" />
      <stop
         style="stop-color:black;stop-opacity:0;"
         offset="1"
         id="stop5052" />
    </linearGradient>
    <linearGradient
       inkscape:collect="always"
       xlink:href="#linearGradient5048"
       id="linearGradient2095"
       gradientUnits="userSpaceOnUse"
       gradientTransform="matrix(2.774389,0,0,1.969706,-1892.179,-872.8854)"
       x1="302.85715"
       y1="366.64789"
       x2="302.85715"
       y2="609.50507" />
  </defs>
  <sodipodi:namedview
     id="base"
     pagecolor="#ffffff"
     bordercolor="#666666"
     borderopacity="1.0"
     inkscape:pageopacity="0.0"
     inkscape:pageshadow="2"
     inkscape:zoom="19.79899"
     inkscape:cx="2.3442224"
     inkscape:cy="7.9426153"
     inkscape:current-layer="layer1"
     showgrid="true"
     inkscape:grid-bbox="true"
     inkscape:document-units="px"
     inkscape:window-width="1248"
     inkscape:window-height="688"
     inkscape:window-x="219"
     inkscape:window-y="263"
     inkscape:window-maximized="0"
     inkscape:snap-bbox="true"
     inkscape:snap-nodes="false">
    <inkscape:grid
       type="xygrid"
       id="grid3002"
       empspacing="2"
       visible="true"
       enabled="true"
       snapvisiblegridlinesonly="true" />
  </sodipodi:namedview>
  <metadata
     id="metadata7222">
    <rdf:RDF>
      <cc:Work
         rdf:about="">
        <dc:format>image/svg+xml</dc:format>
        <dc:type
           rdf:resource="http://purl.org/dc/dcmitype/StillImage" />
        <dc:title></dc:title>
      </cc:Work>
    </rdf:RDF>
  </metadata>
  <g
     id="layer1"
     inkscape:label="Layer 1"
     inkscape:groupmode="layer"
     transform="translate(0,-32)">
    <path
       style="fill:#bebebe;fill-opacity:1;stroke:none"
       d="m 1.3033311,33.056782 c -0.5384074,0 -0.73529878,0.262316 -0.72398649,1.015801 l 0,2.974417 14.84172239,0 0,-1.450715 c 0.0034,-0.758728 -0.178169,-1.015801 -0.723987,-1.015801 l -8.3258436,0 -0.904983,-1.26975 C 5.3698632,33.178982 5.2405448,33.056782 5.1042601,33.056782 z"
       id="path15"
       inkscape:connector-curvature="0"
       sodipodi:nodetypes="sccccsccss" />
    <path
       style="fill:#bebebe;fill-opacity:1;stroke:none;display:inline;enable-background:new"
       d="M 0.5 6.0625 C 0.2972526 6.0625 0.1415016 6.189382 0.15625 6.375 L 0.59375 14.71875 C 0.60444034 14.904707 0.8285061 15.03125 1.03125 15.03125 L 14.96875 15.03125 C 15.171497 15.03125 15.39568 14.904708 15.40625 14.71875 L 15.84375 6.375 C 15.85923 6.189382 15.702747 6.0625 15.5 6.0625 L 0.5 6.0625 z M 2.0625 7 L 13 7 L 13 14.96875 L 12.03125 14.96875 L 12.03125 14 L 11.03125 14 L 11.03125 14.96875 L 10.03125 14.96875 L 10.03125 11.96875 L 5.03125 11.96875 L 5.03125 14.96875 L 4.03125 14.96875 L 4.03125 14 L 3.03125 14 L 3.03125 14.96875 L 2.0625 14.96875 L 2.0625 7 z M 3.03125 8 L 3.03125 8.96875 L 4.03125 8.96875 L 4.03125 8 L 3.03125 8 z M 5.03125 8 L 5.03125 10.96875 L 10.03125 10.96875 L 10.03125 8 L 5.03125 8 z M 11.03125 8 L 11.03125 8.96875 L 12.03125 8.96875 L 12.03125 8 L 11.03125 8 z M 3.03125 10 L 3.03125 10.96875 L 4.03125 10.96875 L 4.03125 10 L 3.03125 10 z M 11.03125 10 L 11.03125 10.96875 L 12.03125 10.96875 L 12.03125 10 L 11.03125 10 z M 3.03125 11.96875 L 3.03125 12.9375 L 4.03125 12.9375 L 4.03125 11.96875 L 3.03125 11.96875 z M 11.03125 11.96875 L 11.03125 12.9375 L 12.03125 12.9375 L 12.03125 11.96875 L 11.03125 11.96875 z "
       transform="translate(0,32)"
       id="path39063" />
  </g>
</svg>
