<?xml version="1.0" encoding="UTF-8" standalone="no"?>
<!-- Created with Inkscape (http://www.inkscape.org/) -->

<svg
   xmlns:dc="http://purl.org/dc/elements/1.1/"
   xmlns:cc="http://creativecommons.org/ns#"
   xmlns:rdf="http://www.w3.org/1999/02/22-rdf-syntax-ns#"
   xmlns:svg="http://www.w3.org/2000/svg"
   xmlns="http://www.w3.org/2000/svg"
   xmlns:sodipodi="http://sodipodi.sourceforge.net/DTD/sodipodi-0.dtd"
   xmlns:inkscape="http://www.inkscape.org/namespaces/inkscape"
   width="16"
   height="16"
   id="svg7217"
   sodipodi:version="0.32"
   inkscape:version="0.48.1 r9760"
   sodipodi:docname="folder-music-symbolic.svg"
   inkscape:output_extension="org.inkscape.output.svg.inkscape"
   version="1.1"
   inkscape:export-filename="folder-symbolic.png"
   inkscape:export-xdpi="90"
   inkscape:export-ydpi="90">
  <defs
     id="defs7219" />
  <sodipodi:namedview
     id="base"
     pagecolor="#ffffff"
     bordercolor="#666666"
     borderopacity="1.0"
     inkscape:pageopacity="0.0"
     inkscape:pageshadow="2"
     inkscape:zoom="19.79899"
     inkscape:cx="-3.3631394"
     inkscape:cy="5.9223102"
     inkscape:current-layer="layer1"
     showgrid="true"
     inkscape:grid-bbox="true"
     inkscape:document-units="px"
     inkscape:window-width="1248"
     inkscape:window-height="688"
     inkscape:window-x="219"
     inkscape:window-y="263"
     inkscape:window-maximized="0">
    <inkscape:grid
       type="xygrid"
       id="grid2984"
       empspacing="2"
       visible="true"
       enabled="true"
       snapvisiblegridlinesonly="true" />
  </sodipodi:namedview>
  <metadata
     id="metadata7222">
    <rdf:RDF>
      <cc:Work
         rdf:about="">
        <dc:format>image/svg+xml</dc:format>
        <dc:type
           rdf:resource="http://purl.org/dc/dcmitype/StillImage" />
        <dc:title />
      </cc:Work>
    </rdf:RDF>
  </metadata>
  <g
     id="layer1"
     inkscape:label="Layer 1"
     inkscape:groupmode="layer"
     transform="translate(0,-32)">
    <path
       style="fill:#bebebe;fill-opacity:1;stroke:none"
       d="m 1.3033311,33.056782 c -0.5384074,0 -0.73529878,0.262316 -0.72398649,1.015801 l 0,2.974417 14.84172239,0 0,-1.450715 c 0.0034,-0.758728 -0.178169,-1.015801 -0.723987,-1.015801 l -8.3258436,0 -0.904983,-1.26975 C 5.3698632,33.178982 5.2405448,33.056782 5.1042601,33.056782 z"
       id="path15"
       inkscape:connector-curvature="0"
       sodipodi:nodetypes="sccccsccss" />
    <path
       style="fill:#bebebe;fill-opacity:1;stroke:none;display:inline;enable-background:new"
       d="m 0.5,6.07475 c -0.2027474,0 -0.3584984,0.126882 -0.34375,0.3125 l 0.4375,8.3375 c 0.0106903,0.185957 0.2347561,0.3125 0.4375,0.3125 l 13.9375,0 c 0.202747,0 0.42693,-0.126543 0.4375,-0.3125 l 0.4375,-8.3375 C 15.85923,6.201632 15.702747,6.07475 15.5,6.07475 z m 4.468375,0.9315 1,0 5.03125,0 1,0 0,0.90625 0,4.34375 c 0.003,0.08504 -0.0081,0.167616 -0.03125,0.25 -6.4e-4,0.009 8e-4,0.02225 0,0.03125 -0.01,0.01906 -0.02005,0.04408 -0.03125,0.0625 -0.11002,0.89939 -0.9389,1.59375 -1.96875,1.59375 -1.10457,0 -2,-0.78823 -2,-1.78125 0,-0.992928 0.89543,-1.8125 2,-1.8125 0.0106,0 0.02075,-9e-5 0.03125,0 l 0,-1.78125 -3.03125,0 0,3.4375 c 0.004,0.04674 0.00405,0.109514 0,0.15625 0,0.99302 -0.89543,1.78125 -2,1.78125 -1.10457,0 -2,-0.78823 -2,-1.78125 0,-0.992928 0.89543,-1.8125 2,-1.8125 l 0,-2.6875 z"
       transform="translate(0,32)"
       id="path39063"
       inkscape:connector-curvature="0"
       sodipodi:nodetypes="sccssccsscccccccccssscccccssccc" />
  </g>
</svg>
