<?xml version="1.0" encoding="UTF-8" standalone="no"?>
<!-- Created with Inkscape (http://www.inkscape.org/) -->

<svg
   xmlns:dc="http://purl.org/dc/elements/1.1/"
   xmlns:cc="http://creativecommons.org/ns#"
   xmlns:rdf="http://www.w3.org/1999/02/22-rdf-syntax-ns#"
   xmlns:svg="http://www.w3.org/2000/svg"
   xmlns="http://www.w3.org/2000/svg"
   xmlns:sodipodi="http://sodipodi.sourceforge.net/DTD/sodipodi-0.dtd"
   xmlns:inkscape="http://www.inkscape.org/namespaces/inkscape"
   width="16"
   height="16"
   id="svg7217"
   sodipodi:version="0.32"
   inkscape:version="0.48.1 r9760"
   sodipodi:docname="folder-remote-symbolic.svg"
   inkscape:output_extension="org.inkscape.output.svg.inkscape"
   version="1.1"
   inkscape:export-filename="folder-symbolic.png"
   inkscape:export-xdpi="90"
   inkscape:export-ydpi="90">
  <defs
     id="defs7219" />
  <sodipodi:namedview
     id="base"
     pagecolor="#ffffff"
     bordercolor="#666666"
     borderopacity="1.0"
     inkscape:pageopacity="0.0"
     inkscape:pageshadow="2"
     inkscape:zoom="19.79899"
     inkscape:cx="-3.2621241"
     inkscape:cy="4.3493705"
     inkscape:current-layer="layer1"
     showgrid="true"
     inkscape:grid-bbox="true"
     inkscape:document-units="px"
     inkscape:window-width="1248"
     inkscape:window-height="688"
     inkscape:window-x="217"
     inkscape:window-y="264"
     inkscape:window-maximized="0">
    <inkscape:grid
       type="xygrid"
       id="grid2994"
       empspacing="2"
       visible="true"
       enabled="true"
       snapvisiblegridlinesonly="true" />
  </sodipodi:namedview>
  <metadata
     id="metadata7222">
    <rdf:RDF>
      <cc:Work
         rdf:about="">
        <dc:format>image/svg+xml</dc:format>
        <dc:type
           rdf:resource="http://purl.org/dc/dcmitype/StillImage" />
        <dc:title />
      </cc:Work>
    </rdf:RDF>
  </metadata>
  <g
     id="layer1"
     inkscape:label="Layer 1"
     inkscape:groupmode="layer"
     transform="translate(0,-32)">
    <path
       style="fill:#bebebe;fill-opacity:1;stroke:none"
       d="m 1.3033311,32.456248 c -0.5384074,0 -0.73529878,0.262316 -0.72398649,1.015801 l 0,3.567951 14.84172239,0 0,-2.044249 c 0.0034,-0.758727 -0.178208,-1.009245 -0.723987,-1.015801 l -8.3258436,0 -0.904983,-1.26975 C 5.3698632,32.578448 5.2405448,32.456248 5.1042601,32.456248 z"
       id="path15"
       inkscape:connector-curvature="0"
       sodipodi:nodetypes="sccccsccss" />
    <path
       style="fill:#bebebe;fill-opacity:1;stroke:none;display:inline;enable-background:new"
       d="M 0.5 5.96875 C 0.2972526 5.96875 0.1415016 6.05217 0.15625 6.1875 L 0.59375 11.78125 C 0.60444034 11.916823 0.8285061 12.03125 1.03125 12.03125 L 7 12.03125 L 7 14 L 1.46875 14 C 1.20576 14 1 14.20565 1 14.46875 L 1 15.53125 C 1 15.79425 1.20576 16 1.46875 16 L 14.53125 16 C 14.79424 16 15 15.79425 15 15.53125 L 15 14.46875 C 15 14.20575 14.79425 14 14.53125 14 L 9 14 L 9 12.03125 L 14.96875 12.03125 C 15.171497 12.03125 15.39568 11.916827 15.40625 11.78125 L 15.84375 6.1875 C 15.85923 6.052168 15.702747 5.96875 15.5 5.96875 L 0.5 5.96875 z "
       transform="translate(0,32)"
       id="path39063" />
    <g
       id="g3877"
       transform="translate(1,32)">
      <g
         style="display:inline"
         id="layer9"
         transform="translate(-462,-176)"
         inkscape:label="status" />
      <g
         id="layer10"
         transform="translate(-462,-176)"
         inkscape:label="devices" />
      <g
         id="layer11"
         transform="translate(-462,-176)"
         inkscape:label="apps" />
      <g
         id="layer12"
         transform="translate(-462,-176)"
         inkscape:label="actions" />
      <g
         id="layer13"
         transform="translate(-462,-176)"
         inkscape:label="places">
        <g
           id="g14176"
           transform="translate(234.0002,-820)"
           inkscape:label="folder-remote" />
      </g>
      <g
         id="layer14"
         transform="translate(-462,-176)"
         inkscape:label="mimetypes" />
      <g
         style="display:inline"
         id="layer15"
         transform="translate(-462,-176)"
         inkscape:label="emblems" />
    </g>
  </g>
</svg>
