<?xml version="1.0" encoding="UTF-8" standalone="no"?>
<!-- Created with Inkscape (http://www.inkscape.org/) -->

<svg
   xmlns:dc="http://purl.org/dc/elements/1.1/"
   xmlns:cc="http://creativecommons.org/ns#"
   xmlns:rdf="http://www.w3.org/1999/02/22-rdf-syntax-ns#"
   xmlns:svg="http://www.w3.org/2000/svg"
   xmlns="http://www.w3.org/2000/svg"
   xmlns:xlink="http://www.w3.org/1999/xlink"
   xmlns:sodipodi="http://sodipodi.sourceforge.net/DTD/sodipodi-0.dtd"
   xmlns:inkscape="http://www.inkscape.org/namespaces/inkscape"
   width="16"
   height="16"
   id="svg7217"
   sodipodi:version="0.32"
   inkscape:version="0.48.1 r9760"
   sodipodi:docname="folder-saved-search-symbolic.svg"
   inkscape:output_extension="org.inkscape.output.svg.inkscape"
   version="1.1"
   inkscape:export-filename="folder-symbolic.png"
   inkscape:export-xdpi="90"
   inkscape:export-ydpi="90">
  <defs
     id="defs7219">
    <linearGradient
       id="linearGradient10176"
       gradientUnits="userSpaceOnUse"
       x1="71.999496"
       y1="14.2578"
       x2="71.999496"
       y2="19.9583"
       gradientTransform="matrix(1.0033404,0,0,1,-8.2374684,8)">
      <stop
         offset="0.00445589"
         style="stop-color:#feebd6;stop-opacity:0;"
         id="stop10178" />
      <stop
         id="stop10180"
         style="stop-color:#f5f5f5;stop-opacity:0.53"
         offset="0.46138024" />
      <stop
         offset="1"
         style="stop-color:#f5f5f5;stop-opacity:0"
         id="stop10182" />
    </linearGradient>
    <linearGradient
       inkscape:collect="always"
       xlink:href="#linearGradient10176"
       id="linearGradient9649"
       gradientUnits="userSpaceOnUse"
       gradientTransform="matrix(0.4550303,0,0,0.942809,-5.4003734,-18.279212)"
       x1="7.2379346"
       y1="36.005047"
       x2="132.86028"
       y2="35.857735" />
    <radialGradient
       inkscape:collect="always"
       xlink:href="#linearGradient5060"
       id="radialGradient2099"
       gradientUnits="userSpaceOnUse"
       gradientTransform="matrix(-2.774389,0,0,1.969706,112.7623,-872.8854)"
       cx="605.71429"
       cy="486.64789"
       fx="605.71429"
       fy="486.64789"
       r="117.14286" />
    <linearGradient
       inkscape:collect="always"
       id="linearGradient5060">
      <stop
         style="stop-color:black;stop-opacity:1;"
         offset="0"
         id="stop5062" />
      <stop
         style="stop-color:black;stop-opacity:0;"
         offset="1"
         id="stop5064" />
    </linearGradient>
    <radialGradient
       inkscape:collect="always"
       xlink:href="#linearGradient5060"
       id="radialGradient2097"
       gradientUnits="userSpaceOnUse"
       gradientTransform="matrix(2.774389,0,0,1.969706,-1891.633,-872.8854)"
       cx="605.71429"
       cy="486.64789"
       fx="605.71429"
       fy="486.64789"
       r="117.14286" />
    <linearGradient
       id="linearGradient5048">
      <stop
         style="stop-color:black;stop-opacity:0;"
         offset="0"
         id="stop5050" />
      <stop
         id="stop5056"
         offset="0.5"
         style="stop-color:black;stop-opacity:1;" />
      <stop
         style="stop-color:black;stop-opacity:0;"
         offset="1"
         id="stop5052" />
    </linearGradient>
    <linearGradient
       inkscape:collect="always"
       xlink:href="#linearGradient5048"
       id="linearGradient2095"
       gradientUnits="userSpaceOnUse"
       gradientTransform="matrix(2.774389,0,0,1.969706,-1892.179,-872.8854)"
       x1="302.85715"
       y1="366.64789"
       x2="302.85715"
       y2="609.50507" />
  </defs>
  <sodipodi:namedview
     id="base"
     pagecolor="#ffffff"
     bordercolor="#666666"
     borderopacity="1.0"
     inkscape:pageopacity="0.0"
     inkscape:pageshadow="2"
     inkscape:zoom="19.79899"
     inkscape:cx="2.3947301"
     inkscape:cy="7.9426153"
     inkscape:current-layer="layer1"
     showgrid="true"
     inkscape:grid-bbox="true"
     inkscape:document-units="px"
     inkscape:window-width="1248"
     inkscape:window-height="688"
     inkscape:window-x="216"
     inkscape:window-y="264"
     inkscape:window-maximized="0">
    <inkscape:grid
       type="xygrid"
       id="grid2999"
       empspacing="2"
       visible="true"
       enabled="true"
       snapvisiblegridlinesonly="true" />
  </sodipodi:namedview>
  <metadata
     id="metadata7222">
    <rdf:RDF>
      <cc:Work
         rdf:about="">
        <dc:format>image/svg+xml</dc:format>
        <dc:type
           rdf:resource="http://purl.org/dc/dcmitype/StillImage" />
        <dc:title />
      </cc:Work>
    </rdf:RDF>
  </metadata>
  <g
     id="layer1"
     inkscape:label="Layer 1"
     inkscape:groupmode="layer"
     transform="translate(0,-32)">
    <path
       style="fill:#bebebe;fill-opacity:1;stroke:none"
       d="m 1.3033311,33.056782 c -0.5384074,0 -0.73529878,0.262316 -0.72398649,1.015801 l 0,2.974417 14.84172239,0 0,-1.450715 c 0.0034,-0.758728 -0.178169,-1.015801 -0.723987,-1.015801 l -8.3258436,0 -0.904983,-1.26975 C 5.3698632,33.178982 5.2405448,33.056782 5.1042601,33.056782 z"
       id="path15"
       inkscape:connector-curvature="0"
       sodipodi:nodetypes="sccccsccss" />
    <path
       style="fill:#bebebe;fill-opacity:1;stroke:none;display:inline;enable-background:new"
       d="m 0.5,6.07475 c -0.2027474,0 -0.3584984,0.126882 -0.34375,0.3125 l 0.4375,8.3375 c 0.0106903,0.185957 0.2347561,0.3125 0.4375,0.3125 l 13.9375,0 c 0.202747,0 0.42693,-0.126543 0.4375,-0.3125 l 0.4375,-8.3375 C 15.85923,6.201632 15.702747,6.07475 15.5,6.07475 z m 7.068375,0.519 c 1.92115,0 3.46875,1.61015 3.46875,3.53125 0,0.59543 -0.17515,1.1363 -0.4375,1.625 l 1.1875,1.1875 c 0.43554,0.35098 0.48923,1.10448 0.09375,1.5 -0.39552,0.39553 -1.14902,0.34174 -1.5,-0.09375 l -1.1875,-1.1875 c -0.48875,0.2623 -1.02959,0.4375 -1.625,0.4375 -1.92116,0 -3.53125,-1.54755 -3.53125,-3.46875 0,-1.9211 1.61009,-3.53125 3.53125,-3.53125 z m 0,2 c -0.84028,0 -1.53125,0.69095 -1.53125,1.53125 0,0.8403 0.69097,1.46875 1.53125,1.46875 0.37613,0 0.71487,-0.12926 0.96875,-0.34375 0.0391,-0.0344 0.081,-0.06585 0.125,-0.09375 0.0103,-0.011 0.02125,-0.01985 0.03125,-0.03125 0.22493,-0.25623 0.34375,-0.61392 0.34375,-1 -5e-5,-0.8403 -0.62848,-1.53125 -1.46875,-1.53125 z"
       transform="translate(0,32)"
       id="path39063"
       inkscape:connector-curvature="0"
       sodipodi:nodetypes="sccssccsssscccccssssssccccs" />
  </g>
</svg>
