/* XPM */
static char * stock_commandline_browser_xpm[] = {
"24 24 76 1",
" 	c None",
".	c #000000",
"+	c #72522E",
"@	c #74410C",
"#	c #81490C",
"$	c #77440B",
"%	c #70522E",
"&	c #303030",
"*	c #814A0A",
"=	c #7E460B",
"-	c #7A460D",
";	c #7E480C",
">	c #91520F",
",	c #7A460C",
"'	c #7B490C",
")	c #78440B",
"!	c #864C0D",
"~	c #8A4F0D",
"{	c #77430A",
"]	c #6D4F2E",
"^	c #6F400A",
"/	c #6A3C0A",
"(	c #62390B",
"_	c #693B0A",
":	c #613609",
"<	c #573009",
"[	c #5C3208",
"}	c #64472C",
"|	c #6A3C0B",
"1	c #72400B",
"2	c #76430A",
"3	c #673B0A",
"4	c #633B0A",
"5	c #6D3F0B",
"6	c #75420B",
"7	c #73420A",
"8	c #713F0C",
"9	c #6F3D0A",
"0	c #6B3B0A",
"a	c #73410C",
"b	c #76430C",
"c	c #6F400C",
"d	c #70410B",
"e	c #6B400B",
"f	c #623808",
"g	c #5B3107",
"h	c #74430B",
"i	c #724109",
"j	c #6F4209",
"k	c #6D3D0C",
"l	c #62370A",
"m	c #6D3E0A",
"n	c #6D4E2D",
"o	c #6E3F0B",
"p	c #77460C",
"q	c #7F4C0D",
"r	c #7D490D",
"s	c #6F420B",
"t	c #643A0A",
"u	c #674A2C",
"v	c #79450B",
"w	c #7D460D",
"x	c #6E3F09",
"y	c #643C09",
"z	c #643C0B",
"A	c #72400D",
"B	c #734007",
"C	c #6D3B0A",
"D	c #6A370A",
"E	c #703B09",
"F	c #703E0B",
"G	c #5F3908",
"H	c #62462B",
"I	c #6D3907",
"J	c #653B09",
"K	c #64492D",
"                        ",
"                        ",
"                        ",
"                        ",
"         .....          ",
"       .........        ",
"      ...+@#$%...       ",
"     ..&*#=-$;>&..      ",
"     ..,',)$!~#{..      ",
"    ..]$$^/(_:<[}..     ",
"    ..|1213456789..     ",
"    ..0a)b1cdefg[..     ",
"    ..h1a1ij6k:lm..     ",
"    ..na1^opqrstu..     ",
"     ..vw2xy(zAB..      ",
"     ..&CDEFtGz&..      ",
"      ...HI/JK...       ",
"       .........        ",
"         .....          ",
"                        ",
"                        ",
"                        ",
"                        ",
"                        "};
